<svg xmlns="http://www.w3.org/2000/svg" xmlns:xlink="http://www.w3.org/1999/xlink" version="1.1" width="256" height="256" viewBox="0 0 256 256" xml:space="preserve">

<defs>
</defs>
<g style="stroke: none; stroke-width: 0; stroke-dasharray: none; stroke-linecap: butt; stroke-linejoin: miter; stroke-miterlimit: 10; fill: none; fill-rule: nonzero; opacity: 1;" transform="translate(1.4065934065934016 1.4065934065934016) scale(2.81 2.81)" >
	<path d="M 45 90 c -0.354 0 -0.681 -0.187 -0.861 -0.491 l -4.712 -7.972 C 30.222 65.976 20.704 49.884 17.64 43.734 c -2.033 -4.169 -3.062 -8.646 -3.062 -13.313 C 14.578 13.647 28.225 0 45 0 c 16.774 0 30.422 13.647 30.422 30.422 c 0 4.664 -1.028 9.141 -3.056 13.305 c -0.012 0.023 -0.023 0.045 -0.036 0.067 c -3.095 6.193 -12.581 22.231 -21.757 37.743 l -4.712 7.972 C 45.681 89.813 45.354 90 45 90 z M 45 2 C 29.328 2 16.578 14.75 16.578 30.422 c 0 4.359 0.96 8.542 2.854 12.43 c 3.027 6.073 12.522 22.126 21.705 37.649 L 45 87.035 l 3.853 -6.517 c 9.187 -15.531 18.686 -31.591 21.717 -37.676 c 0.009 -0.017 0.018 -0.033 0.026 -0.049 c 1.875 -3.874 2.826 -8.036 2.826 -12.372 C 73.422 14.75 60.672 2 45 2 z" style="stroke: none; stroke-width: 1; stroke-dasharray: none; stroke-linecap: butt; stroke-linejoin: miter; stroke-miterlimit: 10; fill: rgb(0,0,0); fill-rule: nonzero; opacity: 1;" transform=" matrix(1 0 0 1 0 0) " stroke-linecap="round" />
	<path d="M 45 42.436 c -7.279 0 -13.2 -5.922 -13.2 -13.201 s 5.921 -13.2 13.2 -13.2 c 7.278 0 13.2 5.921 13.2 13.2 S 52.278 42.436 45 42.436 z M 45 18.035 c -6.176 0 -11.2 5.024 -11.2 11.2 c 0 6.176 5.024 11.201 11.2 11.201 s 11.2 -5.024 11.2 -11.201 C 56.2 23.059 51.176 18.035 45 18.035 z" style="stroke: none; stroke-width: 1; stroke-dasharray: none; stroke-linecap: butt; stroke-linejoin: miter; stroke-miterlimit: 10; fill: rgb(0,0,0); fill-rule: nonzero; opacity: 1;" transform=" matrix(1 0 0 1 0 0) " stroke-linecap="round" />
</g>
</svg>