<?xml version="1.0" encoding="utf-8"?>
<!-- Generator: Adobe Illustrator 27.5.0, SVG Export Plug-In . SVG Version: 6.00 Build 0)  -->
<svg version="1.1" id="Layer_1" xmlns="http://www.w3.org/2000/svg" xmlns:xlink="http://www.w3.org/1999/xlink" x="0px" y="0px"
	 viewBox="0 0 899.999 900" style="enable-background:new 0 0 899.999 900;" xml:space="preserve">
<path style="opacity:0.6;fill:#A1A3B2;" d="M98.108,771.118c0,2.004,1.635,3.629,4.227,3.629l595.499,0
	c2.592,0,4.693-1.625,4.693-3.629l0,0c0-2.004-2.101-3.629-4.693-3.629l-595.499,0C99.743,767.489,98.108,769.114,98.108,771.118
	L98.108,771.118z"/>
<g>
	<g>
		<path style="fill:#A7A9AC;" d="M103.968,727.573c-0.137,0-0.275-0.014-0.414-0.043c-1.082-0.228-1.775-1.29-1.548-2.372
			c0,0,0.333-1.586,0.999-4.436c0.252-1.078,1.333-1.744,2.406-1.495c1.076,0.252,1.746,1.329,1.494,2.406
			c-0.649,2.783-0.977,4.336-0.979,4.349C105.728,726.925,104.896,727.573,103.968,727.573z"/>
	</g>
	<g>
		<path style="fill:#A7A9AC;" d="M108.477,709.173c-0.171,0-0.345-0.022-0.518-0.068c-1.069-0.286-1.704-1.384-1.418-2.452
			c0.739-2.767,1.521-5.594,2.322-8.403c0.303-1.064,1.409-1.679,2.476-1.376c1.063,0.304,1.68,1.412,1.376,2.476
			c-0.795,2.788-1.57,5.593-2.305,8.338C110.171,708.582,109.362,709.173,108.477,709.173z M114.953,686.944
			c-0.2,0-0.403-0.03-0.604-0.094c-1.055-0.333-1.64-1.458-1.307-2.513c0.876-2.769,1.784-5.558,2.7-8.289
			c0.351-1.048,1.486-1.614,2.535-1.262c1.049,0.352,1.614,1.487,1.262,2.536c-0.908,2.709-1.809,5.475-2.677,8.222
			C116.592,686.398,115.803,686.944,114.953,686.944z M122.459,665.05c-0.232,0-0.468-0.041-0.698-0.126
			c-1.037-0.386-1.564-1.539-1.179-2.576c1.025-2.755,2.078-5.495,3.13-8.143c0.408-1.028,1.574-1.531,2.601-1.122
			c1.028,0.408,1.53,1.572,1.122,2.601c-1.041,2.621-2.083,5.333-3.099,8.061C124.036,664.552,123.272,665.05,122.459,665.05z
			 M131.183,643.618c-0.273,0-0.55-0.056-0.815-0.175c-1.01-0.451-1.464-1.635-1.013-2.645c1.208-2.706,2.445-5.374,3.679-7.93
			c0.481-0.997,1.68-1.413,2.674-0.934c0.996,0.48,1.414,1.677,0.934,2.674c-1.215,2.521-2.436,5.153-3.628,7.823
			C132.68,643.176,131.949,643.618,131.183,643.618z M267.046,629.734c-0.746,0-1.463-0.419-1.807-1.137
			c-1.239-2.583-2.557-5.146-3.916-7.617c-0.533-0.969-0.18-2.187,0.79-2.72c0.969-0.534,2.188-0.18,2.72,0.789
			c1.395,2.536,2.746,5.165,4.018,7.816c0.479,0.997,0.058,2.194-0.939,2.672C267.632,629.67,267.337,629.734,267.046,629.734z
			 M141.483,622.9c-0.33,0-0.664-0.082-0.973-0.254c-0.967-0.538-1.314-1.758-0.775-2.724c1.459-2.618,2.949-5.163,4.429-7.564
			c0.581-0.942,1.815-1.234,2.756-0.654c0.941,0.58,1.234,1.814,0.654,2.756c-1.449,2.351-2.909,4.845-4.339,7.412
			C142.867,622.53,142.186,622.9,141.483,622.9z M255.481,609.724c-0.634,0-1.257-0.3-1.646-0.86
			c-1.654-2.379-3.375-4.672-5.116-6.815c-0.697-0.859-0.566-2.12,0.292-2.817c0.857-0.696,2.12-0.568,2.817,0.292
			c1.804,2.22,3.585,4.593,5.296,7.054c0.631,0.908,0.407,2.156-0.501,2.788C256.274,609.608,255.875,609.724,255.481,609.724z
			 M153.981,603.453c-0.419,0-0.842-0.131-1.203-0.403c-0.883-0.665-1.061-1.921-0.395-2.805c1.824-2.424,3.691-4.729,5.551-6.852
			c0.728-0.832,1.993-0.917,2.826-0.188c0.832,0.729,0.916,1.994,0.188,2.826c-1.794,2.049-3.6,4.277-5.365,6.622
			C155.189,603.178,154.589,603.453,153.981,603.453z M240.379,592.272c-0.479,0-0.961-0.172-1.345-0.52
			c-2.131-1.933-4.336-3.725-6.554-5.326c-0.898-0.647-1.1-1.899-0.452-2.796c0.648-0.897,1.898-1.099,2.796-0.452
			c2.339,1.688,4.661,3.574,6.901,5.608c0.819,0.743,0.881,2.01,0.138,2.829C241.468,592.051,240.925,592.272,240.379,592.272z
			 M169.771,586.642c-0.582,0-1.159-0.252-1.555-0.74c-0.698-0.858-0.568-2.12,0.29-2.818c2.4-1.951,4.855-3.686,7.296-5.155
			c0.947-0.571,2.179-0.265,2.749,0.683c0.57,0.948,0.265,2.179-0.683,2.749c-2.28,1.372-4.58,2.998-6.835,4.831
			C170.661,586.495,170.215,586.642,169.771,586.642z M221.123,579.682c-0.261,0-0.526-0.051-0.781-0.16
			c-2.583-1.096-5.244-1.998-7.908-2.68c-1.072-0.274-1.719-1.365-1.444-2.437c0.274-1.071,1.368-1.718,2.437-1.444
			c2.859,0.732,5.713,1.698,8.48,2.873c1.018,0.432,1.493,1.608,1.061,2.626C222.644,579.224,221.903,579.682,221.123,579.682z
			 M190.091,576.159c-0.911,0-1.735-0.626-1.949-1.552c-0.249-1.078,0.423-2.153,1.5-2.402c2.961-0.684,5.986-1.039,8.994-1.058
			c0.004,0,0.008,0,0.012,0c1.101,0,1.996,0.889,2.003,1.991c0.007,1.106-0.885,2.008-1.991,2.015
			c-2.712,0.016-5.442,0.337-8.115,0.954C190.392,576.143,190.24,576.159,190.091,576.159z"/>
	</g>
	<g>
		<path style="fill:#A7A9AC;" d="M274.152,647.24c-0.004,0-0.008,0-0.011,0c-0.877-0.005-1.648-0.579-1.904-1.417
			c-0.005-0.015-0.48-1.562-1.435-4.148c-0.383-1.038,0.147-2.189,1.186-2.572c0.771-0.286,1.608-0.064,2.145,0.497
			c0.524-0.558,1.35-0.787,2.118-0.519c1.045,0.364,1.596,1.506,1.232,2.551c-0.935,2.682-1.417,4.198-1.423,4.213
			C275.796,646.676,275.024,647.24,274.152,647.24z"/>
	</g>
	<g>
		<path style="fill:#A7A9AC;" d="M280.76,629.093c-0.244,0-0.493-0.045-0.734-0.14c-1.028-0.406-1.534-1.569-1.128-2.598
			c1.092-2.766,2.227-5.554,3.374-8.286c0.429-1.02,1.605-1.499,2.622-1.071c1.02,0.428,1.5,1.602,1.071,2.622
			c-1.136,2.705-2.26,5.465-3.341,8.205C282.314,628.612,281.559,629.093,280.76,629.093z M290.118,607.278
			c-0.283,0-0.57-0.06-0.844-0.188c-1.003-0.467-1.438-1.658-0.972-2.661c1.264-2.714,2.566-5.429,3.874-8.068
			c0.49-0.99,1.689-1.398,2.685-0.906c0.99,0.491,1.396,1.693,0.905,2.684c-1.294,2.61-2.583,5.295-3.831,7.979
			C291.596,606.849,290.873,607.278,290.118,607.278z M300.855,586.117c-0.328,0-0.662-0.081-0.97-0.252
			c-0.967-0.537-1.316-1.756-0.779-2.723c1.478-2.666,2.983-5.279,4.474-7.769c0.567-0.949,1.796-1.259,2.747-0.69
			c0.949,0.568,1.259,1.798,0.69,2.747c-1.468,2.452-2.951,5.028-4.409,7.655C302.242,585.745,301.559,586.117,300.855,586.117z
			 M443.217,585.997c-0.742,0-1.455-0.414-1.802-1.125c-1.299-2.661-2.653-5.301-4.027-7.845c-0.525-0.973-0.162-2.188,0.811-2.714
			c0.971-0.526,2.189-0.162,2.714,0.811c1.399,2.592,2.779,5.281,4.102,7.992c0.485,0.994,0.072,2.193-0.922,2.678
			C443.811,585.932,443.511,585.997,443.217,585.997z M313.3,565.911c-0.392,0-0.787-0.115-1.135-0.354
			c-0.911-0.628-1.14-1.875-0.513-2.786c1.739-2.524,3.513-4.975,5.271-7.285c0.671-0.88,1.926-1.051,2.807-0.38
			c0.881,0.67,1.051,1.926,0.381,2.807c-1.721,2.26-3.457,4.659-5.16,7.131C314.563,565.608,313.937,565.911,313.3,565.911z
			 M431.621,565.306c-0.658,0-1.302-0.324-1.685-0.918c-1.618-2.509-3.286-4.949-4.959-7.251c-0.65-0.895-0.452-2.147,0.442-2.798
			c0.895-0.651,2.147-0.452,2.798,0.443c1.716,2.362,3.427,4.863,5.086,7.434c0.599,0.929,0.331,2.169-0.598,2.768
			C432.37,565.202,431.993,565.306,431.621,565.306z M328.047,547.352c-0.49,0-0.98-0.178-1.367-0.539
			c-0.809-0.755-0.852-2.022-0.097-2.831c2.12-2.27,4.281-4.414,6.423-6.374c0.816-0.747,2.085-0.689,2.829,0.126
			c0.747,0.816,0.69,2.083-0.126,2.83c-2.063,1.888-4.149,3.958-6.198,6.152C329.116,547.138,328.582,547.352,328.047,547.352z
			 M417.243,546.47c-0.541,0-1.08-0.218-1.476-0.647c-2.023-2.2-4.098-4.271-6.167-6.155c-0.817-0.745-0.877-2.011-0.133-2.829
			c0.744-0.817,2.01-0.879,2.83-0.133c2.156,1.963,4.316,4.118,6.419,6.405c0.748,0.814,0.695,2.081-0.119,2.83
			C418.213,546.295,417.728,546.47,417.243,546.47z M346.068,532.042c-0.664,0-1.313-0.33-1.695-0.933
			c-0.591-0.935-0.311-2.172,0.623-2.763c2.668-1.686,5.381-3.149,8.065-4.348c1.01-0.451,2.195,0.001,2.646,1.011
			c0.452,1.01-0.001,2.195-1.011,2.646c-2.51,1.121-5.053,2.493-7.559,4.077C346.804,531.942,346.434,532.042,346.068,532.042z
			 M399.141,531.28c-0.353,0-0.71-0.093-1.033-0.289c-2.517-1.52-5.089-2.824-7.645-3.876c-1.022-0.421-1.511-1.592-1.089-2.615
			c0.421-1.022,1.588-1.512,2.614-1.089c2.743,1.13,5.498,2.526,8.189,4.151c0.947,0.572,1.251,1.803,0.68,2.75
			C400.481,530.936,399.82,531.28,399.141,531.28z M368.051,523.854c-1.004,0-1.87-0.753-1.987-1.775
			c-0.126-1.099,0.663-2.092,1.762-2.218c1.454-0.167,2.929-0.264,4.383-0.288c1.635-0.028,3.267,0.028,4.881,0.166
			c1.102,0.094,1.919,1.064,1.824,2.166c-0.094,1.102-1.045,1.919-2.166,1.825c-1.478-0.126-2.982-0.177-4.471-0.152
			c-1.325,0.023-2.669,0.111-3.994,0.263C368.204,523.85,368.127,523.854,368.051,523.854z"/>
	</g>
	<g>
		<path style="fill:#A7A9AC;" d="M450.843,603.692c-0.848,0-1.605-0.535-1.889-1.336c-0.005-0.015-0.547-1.544-1.584-4.124
			c-0.412-1.026,0.085-2.193,1.111-2.605c0.808-0.325,1.696-0.087,2.242,0.525c0.518-0.631,1.39-0.906,2.203-0.625
			c1.046,0.361,1.602,1.5,1.241,2.546c-0.929,2.694-1.413,4.211-1.417,4.224c-0.262,0.82-1.018,1.381-1.878,1.394
			C450.864,603.692,450.853,603.692,450.843,603.692z"/>
	</g>
	<g>
		<path style="fill:#A7A9AC;" d="M457.611,584.845c-0.24,0-0.483-0.043-0.721-0.135c-1.032-0.398-1.546-1.557-1.149-2.589
			c1.122-2.909,2.284-5.84,3.455-8.711c0.418-1.024,1.589-1.516,2.61-1.098c1.024,0.418,1.517,1.587,1.099,2.611
			c-1.161,2.848-2.314,5.754-3.426,8.639C459.173,584.357,458.414,584.845,457.611,584.845z M467.159,561.867
			c-0.273,0-0.552-0.056-0.817-0.175c-1.01-0.452-1.462-1.637-1.01-2.646c1.287-2.877,2.607-5.742,3.921-8.514
			c0.474-1,1.673-1.425,2.667-0.952c1,0.474,1.426,1.668,0.952,2.668c-1.302,2.747-2.608,5.585-3.884,8.435
			C468.656,561.425,467.925,561.867,467.159,561.867z M478.008,539.482c-0.314,0-0.634-0.074-0.932-0.231
			c-0.979-0.516-1.354-1.727-0.838-2.706c1.488-2.826,3.001-5.599,4.495-8.242c0.545-0.963,1.767-1.302,2.728-0.758
			c0.963,0.544,1.303,1.766,0.758,2.729c-1.474,2.609-2.967,5.347-4.438,8.139C479.423,539.093,478.728,539.482,478.008,539.482z
			 M612.451,522.453c-0.645,0-1.279-0.311-1.665-0.887c-1.725-2.573-3.517-5.109-5.325-7.54c-0.66-0.888-0.475-2.142,0.412-2.803
			c0.891-0.661,2.143-0.475,2.803,0.411c1.847,2.483,3.676,5.073,5.437,7.7c0.616,0.919,0.371,2.163-0.548,2.779
			C613.223,522.343,612.834,522.453,612.451,522.453z M490.51,517.985c-0.373,0-0.75-0.104-1.087-0.322
			c-0.929-0.601-1.193-1.841-0.592-2.77c1.749-2.701,3.529-5.322,5.292-7.79c0.642-0.9,1.892-1.109,2.794-0.467
			c0.9,0.643,1.108,1.894,0.466,2.794c-1.727,2.419-3.474,4.99-5.19,7.641C491.81,517.662,491.166,517.985,490.51,517.985z
			 M597.24,502.8c-0.548,0-1.093-0.223-1.488-0.661c-2.105-2.333-4.252-4.555-6.379-6.605c-0.797-0.767-0.82-2.035-0.053-2.832
			c0.77-0.797,2.035-0.82,2.832-0.053c2.194,2.114,4.406,4.404,6.574,6.806c0.74,0.821,0.676,2.088-0.146,2.829
			C598.198,502.629,597.717,502.8,597.24,502.8z M505.364,498.063c-0.469,0-0.94-0.164-1.32-0.498
			c-0.831-0.73-0.914-1.995-0.184-2.826c2.167-2.469,4.366-4.783,6.536-6.876c0.795-0.768,2.061-0.746,2.832,0.051
			c0.768,0.796,0.745,2.064-0.051,2.832c-2.091,2.017-4.213,4.25-6.308,6.636C506.474,497.832,505.92,498.063,505.364,498.063z
			 M578.834,486.147c-0.399,0-0.802-0.119-1.153-0.367c-2.556-1.804-5.147-3.415-7.698-4.788c-0.975-0.524-1.34-1.738-0.815-2.713
			c0.524-0.974,1.736-1.339,2.713-0.815c2.694,1.449,5.423,3.146,8.111,5.044c0.903,0.638,1.119,1.888,0.482,2.791
			C580.082,485.852,579.463,486.147,578.834,486.147z M523.896,481.626c-0.664,0-1.313-0.33-1.694-0.932
			c-0.592-0.935-0.313-2.172,0.621-2.763c2.85-1.804,5.735-3.299,8.576-4.444c1.025-0.413,2.192,0.084,2.606,1.11
			c0.414,1.026-0.083,2.193-1.109,2.606c-2.616,1.054-5.284,2.437-7.93,4.112C524.633,481.525,524.262,481.626,523.896,481.626z
			 M556.487,475.694c-0.147,0-0.297-0.016-0.447-0.05c-2.942-0.67-5.911-1.048-8.825-1.121c-1.105-0.028-1.979-0.947-1.951-2.053
			c0.027-1.106,0.938-1.985,2.053-1.952c3.178,0.08,6.413,0.49,9.614,1.22c1.078,0.246,1.753,1.319,1.508,2.398
			C558.226,475.064,557.401,475.694,556.487,475.694z"/>
	</g>
	<g>
		<path style="fill:#A7A9AC;" d="M622.686,539.601c-0.755,0-1.45-0.426-1.79-1.107c-0.008-0.014-0.735-1.467-2.087-3.886
			c-0.54-0.965-0.194-2.186,0.771-2.725c0.966-0.54,2.187-0.194,2.725,0.771c0.01,0.018,0.02,0.035,0.029,0.052l0.011-0.028
			c0.377-1.039,1.525-1.575,2.566-1.198c1.039,0.378,1.576,1.527,1.197,2.567l-1.54,4.235c-0.273,0.752-0.968,1.269-1.767,1.315
			C622.763,539.6,622.725,539.601,622.686,539.601z"/>
	</g>
	<g>
		<path style="fill:#A7A9AC;" d="M627.663,525.914c-0.227,0-0.459-0.039-0.685-0.121c-1.039-0.378-1.576-1.527-1.197-2.567
			l2.063-5.671c0.379-1.04,1.529-1.575,2.566-1.198c1.039,0.378,1.576,1.527,1.197,2.567l-2.063,5.671
			C629.249,525.409,628.482,525.914,627.663,525.914z"/>
	</g>
	<g>
		<path style="fill:#A7A9AC;" d="M633.163,510.79c-0.227,0-0.459-0.039-0.685-0.121c-1.039-0.378-1.576-1.527-1.197-2.567
			l1.54-4.235c0.377-1.04,1.525-1.575,2.566-1.198c1.039,0.378,1.576,1.527,1.197,2.567l-1.54,4.235
			C634.749,510.285,633.982,510.79,633.163,510.79z"/>
	</g>
</g>
<g>
	<path style="fill:#891815;" d="M611.609,417.725c0.258-12.361,14.06-25.384,26.945-29.334s39.971-8.694,49.179-0.282
		c9.208,8.412,8.552,11.963,8.552,11.963s40.841-140.847,41.102-146.37c0.261-5.523,4.591-28.273-7.636-24.455
		c-12.227,3.818-29.711,18.947-34.048,24.603c-4.337,5.656-18.658,36.563-18.658,36.563L664.3,318.952l-14.189,31.564
		l-16.558,26.568l-13.799,19.861L611.609,417.725z"/>
	<path style="fill:#A0481C;" d="M712.478,194.67c-1.724,4.833-0.49,7.467,0.621,10.612c1.11,3.145,0.619,6.449-0.441,7.559
		c0,0,6.804-1.876,6.654-6.462c-0.15-4.586-2.075-10.995-3.654-11.833C714.081,193.708,712.478,194.67,712.478,194.67z"/>
	<g>
		<g>
			<g>
				<path style="fill:#723216;" d="M657.596,437.234l-15.13,0.028c0,0-5.187,11.551-4.033,12.412
					c1.161,0.864,2.517,4.527,2.517,4.527c-3.11,7.03-3.384,6.943-4.281,10.65c-1.159,4.785-0.339,16.216,3.294,19.541
					c2.135,1.956,7.522,2.48,8.1-0.357c1.908-9.361,3.811-15.457,6.076-19.98c2.384-4.76,14.382-15.708,14.382-15.708
					L657.596,437.234z"/>
			</g>
			<g style="opacity:0.2;">
				<g>
					<path style="fill:#0B2025;" d="M657.519,459.447c4.382-5.058,11.002-11.1,11.002-11.1l-10.925-11.113l-6.302,0.012
						c0.228,0.148,0.457,0.246,0.691,0.253c2.235,0.065,2.763,3.549,3.355,5.653c0.593,2.104,2.143,15.812,2.143,15.812
						S657.485,459.177,657.519,459.447z"/>
				</g>
			</g>
			<g>
				<path style="fill:#314444;" d="M654.257,436.64l12.594,17.882l37.555-30.296l0.14-36.078c0,0-20.812,13.474-26.293,18.309
					C670.28,413.491,654.257,436.64,654.257,436.64z"/>
			</g>
			<g>
				<path style="fill:#351E11;" d="M641.142,480.393c-3.182-8.37-1.283-17.233,1.31-23.008c1.826-4.064,2.009-14.354,4.226-20.13
					l-4.212,0.008c0,0-5.187,11.551-4.033,12.412c1.161,0.864,2.517,4.527,2.517,4.527c-3.11,7.03-3.384,6.943-4.281,10.65
					c-1.159,4.785-0.339,16.216,3.294,19.541c1.427,1.308,4.304,1.969,6.23,1.421C644.331,484.962,641.786,482.088,641.142,480.393z
					"/>
			</g>
		</g>
		<g>
			<g>
				<path style="fill:#723216;" d="M664.127,461.352l-14.785,3.21c0,0-2.641,12.384-1.332,12.982c1.317,0.6,3.414,3.896,3.414,3.896
					c-1.562,7.527-1.848,7.499-1.945,11.311c-0.126,4.923,3.08,15.925,7.331,18.412c2.498,1.463,7.875,0.842,7.844-2.054
					c-0.104-9.551,0.475-15.912,1.737-20.811c1.33-5.155,10.756-18.381,10.756-18.381L664.127,461.352z"/>
			</g>
			<g style="opacity:0.2;">
				<g>
					<path style="fill:#0B2025;" d="M677.146,469.918l-13.019-8.566l-3.721,0.808c0.438,0.299,0.883,0.846,1.353,1.931
						c0.954,2.202,5.364,13.969,6.088,15.876c0.255,0.671,0.675,1.626,1.209,2.519C672.289,476.733,677.146,469.918,677.146,469.918
						z"/>
				</g>
			</g>
			<g>
				<path style="fill:#4E6566;" d="M660.737,461.474l15.59,16.451l30.825-39.137l-7.452-35.3c0,0-12.23,15.052-16.572,20.932
					C676.813,432.972,660.737,461.474,660.737,461.474z"/>
			</g>
			<g>
				<path style="fill:#351E11;" d="M657.12,507.006c-4.871-7.513-4.879-16.578-3.559-22.77c0.93-4.357-1.056-14.455-0.103-20.568
					l-4.116,0.894c0,0-2.641,12.384-1.332,12.982c1.317,0.6,3.414,3.896,3.414,3.896c-1.562,7.527-1.848,7.499-1.945,11.311
					c-0.126,4.923,3.08,15.925,7.331,18.412c1.67,0.977,4.622,1.019,6.388,0.078C661.199,510.802,658.106,508.528,657.12,507.006z"
					/>
			</g>
			<g style="opacity:0.2;">
				<g>
					<path style="fill:#0B2025;" d="M697.051,451.613l8.421-10.692c-3.015-3.104-6.807-6.793-6.807-6.793l-13.677-12.167
						c-0.709,0.922-1.342,1.757-1.86,2.459c-1.824,2.47-4.463,6.606-7.292,11.237L697.051,451.613z"/>
				</g>
			</g>
		</g>
		<g>
			<polygon style="fill:#FFA969;" points="791.214,129.101 805.192,103.258 819.403,101.39 820.836,111.282 816.172,113.987 
				816.539,117.632 804.99,122.914 802.794,131.425 			"/>
		</g>
		<g>
			<path style="fill:#333A70;" d="M759.93,243.297l20.198-52.486l25.42-61.802l-12.271-8.174c0,0-12.87,19.107-18.323,28.577
				c-3.098,5.379-13.601,23.411-16.393,27.39c-2.793,3.979-10.465,13.34-10.465,13.34l-10.668,23.403l3.418,28.85L759.93,243.297z"
				/>
		</g>
		<g style="opacity:0.5;">
			<g>
				<path style="fill:#0B2025;" d="M778.155,180.74l-23.948,44.29c0,0,3.45,6.989,7.372,13.982l18.549-48.201l25.42-61.802
					l-3.799-2.531l-0.637-0.088L778.155,180.74z"/>
			</g>
		</g>
		<g>
			<path style="fill:#333A70;" d="M748.829,323.495c0,0,15.764-20.197,19.599-47.977c1.856-13.441-2.573-47.63-2.573-47.63
				l-12.434,3.453l-49.377,10.159c0,0-19.08,37.659-23.381,48.398c-6.012,15.012-2.668,25.625-0.155,28.882
				c2.513,3.257,6.84,5.98,12.663,4.054c5.534-1.831,20.897-7.732,20.897-7.732L748.829,323.495z"/>
		</g>
		<g>
			<path style="fill:#333A70;" d="M668.924,416.24l34.065,38.127c0,0,37.079-67.001,42.09-86.555
				c3.421-13.349,21.258-81.528,21.258-81.528l-50.012-7.076l-20.882,49.079l-9.27,62.7L668.924,416.24z"/>
		</g>
		<g style="opacity:0.4;">
			<g>
				<path style="fill:#0B2025;" d="M684.88,299.441c0,0,6.863-4.438,11.66-5.798c5.911-1.677,12.297-2.1,15.945-6.079
					c2.892-3.155,14.6-19.663,18.497-18.901c3.025,0.591,11.62,12.304,11.62,12.304s-8.426-3.088-11.583-4.392
					c-1.739-0.718-7.509,8.33-10.194,15.407c-2.154,5.679-7.896,5.814-7.896,5.814s-1.203-1.167-8.063-1.632
					C694.987,295.493,684.88,299.441,684.88,299.441z"/>
			</g>
		</g>
		<g>
			<polygon style="fill:#FFFFFF;" points="721.758,229.681 726.065,204.008 740.757,214.219 757.428,236.71 			"/>
		</g>
		<g style="opacity:0.4;">
			<g>
				<path style="fill:#0B2025;" d="M758.121,241.152c-10.227-0.754-0.061-0.592-0.091-0.886c-0.259-0.931-0.715-2.766-1.41-6.232
					c-0.293-1.462-1.279-2.627-2.641-3.546l-9.588,2.663l-40.347,8.35c0,0-19.08,37.659-23.381,48.398
					c-6.012,15.012-2.668,25.625-0.155,28.882c2.513,3.257,6.84,5.98,12.663,4.054c5.534-1.831,20.897-7.732,20.897-7.732
					l2.274,0.549c0.707-0.949,1.173-1.671,1.262-1.997c0.443-1.627-2.813-5.078-2.813-5.078s-21.003,7.799-27.266,8.541
					c-6.262,0.742-8.584-10.845-7.896-16.368c0.688-5.523,5.617-12.922,9.065-21.306c3.448-8.384,6.259-8.435,9.461-16.769
					c3.202-8.335,5.419-12.626,13.504-18.349c8.085-5.723,24.308-5.384,32.051-2.577L758.121,241.152z"/>
			</g>
		</g>
		<g>
			<path style="fill:#E33B0F;" d="M703.82,247.436c9.317-8.534,20.433-8.748,26.526-8.393c27.763,1.617,38.176,24.148,38.176,24.148
				s-0.145-9.095-0.487-13.649c-0.343-4.553-20.077-34.372-20.077-34.372l-7.658,3.586l6.963,11.052l-24.05-12.927
				c0,0-12.551-2.485-29.561,22.49c-13.303,19.532-29.299,64.567-39.497,85.888c-10.002,20.916-32.927,57.715-40.959,71.377
				c-8.032,13.662-6.616,21.353-5.801,25.42c2.276,11.358,9.776,19.306,9.776,19.306s22.935-51.918,44.476-103.671
				C680.031,293.515,694.74,255.754,703.82,247.436z"/>
		</g>
		<g style="opacity:0.4;">
			<path style="fill:#891815;" d="M736.315,223.924l-13.103-7.043c0,0-12.551-2.485-29.561,22.49
				c-5.424,7.964-11.295,20.167-17.039,33.274c0.222-0.452,0.451-0.928,0.688-1.43c14.929-31.713,33.859-46.02,35.93-44.64
				s7.005,6.802,8.401,8.37c1.397,1.568,6.147-4.875,12.31-6.11C733.942,228.834,734.969,226.742,736.315,223.924z"/>
		</g>
		<g>
			<path style="fill:#FFA969;" d="M707.393,305.358c-0.412-3.98,5.937-10.462,6.883-11.508c4.058-4.489,6.383-4.907,7.732-4.499
				c1.349,0.408,10.658,2.722,11.362,4.162c0.704,1.44-1.022,2.972-1.022,2.972s1.188,2.826,0.763,3.681
				c-0.425,0.854-1.704,1.107-1.704,1.107s0.276,0.919-0.333,1.751c-1.251,1.709-3.644,1.052-3.644,1.052s0.402,1.807-1.335,2.757
				c-1.527,0.835-4.078,0.77-4.078,0.77l-3.18,1.819l-6.587,2.501C712.248,311.923,707.987,311.095,707.393,305.358z"/>
		</g>
		<g>
			<polygon style="fill:#FF8A54;" points="806.77,115.671 809.205,106.957 816.495,106.224 816.862,109.868 812.791,112.737 
				813.849,114.531 			"/>
		</g>
		<g>
			<path style="fill:#FF8A54;" d="M722.015,307.603c-0.747,0.029-2.014-1.1-1.048-2.077c0.966-0.977,2.463-1.341,2.463-1.341
				s-0.376-0.117-0.524-0.696c-0.148-0.579,0.112-0.905,0.112-0.905s-3.108,0.313-3.068,0.615c0.164,1.235-2.124,4.956-3.489,5.717
				c-1.365,0.762-5.257,2.4-5.257,2.4l1.044,0.608l6.587-2.501C718.836,309.422,722.356,307.59,722.015,307.603z"/>
		</g>
		<g style="opacity:0.4;">
			<g>
				<path style="fill:#0B2025;" d="M698.621,320.561c0,0-2.596,3.145-4.204,10.476c-1.247,5.686-8.245,59.949-8.245,59.949
					s17.199-50.81,21.283-61.711c4.084-10.901,11.38-19.854,11.38-19.854l-6.587,2.501L698.621,320.561z"/>
			</g>
		</g>
		<g>
			<path style="fill:#FF8A54;" d="M722.64,219.415l4.767-19.392l25.868,8.392c0,0-4.374,2.509-4.945,4.303
				c-0.319,1.005,0.877,3.606,0.378,4.532c-2.503,4.638-1.537,5.941,4.482,14.65C756.629,236.876,722.64,219.415,722.64,219.415z"/>
		</g>
		<g>
			<path style="fill:#C66340;" d="M727.008,201.647l-0.401,1.631c1.37,3.846,5.226,13.358,20.626,17.294
				c0.302-1.04,0.82-2.108,1.475-3.321c0.499-0.926-0.696-3.527-0.378-4.532c0.571-1.794,4.945-4.303,4.945-4.303l-25.239-8.188
				C727.675,200.658,727.309,201.183,727.008,201.647z"/>
		</g>
		<g>
			<path style="fill:#FFFFFF;" d="M723.409,215.944l-5.417,6.735l3.64,12.266l10.222-2.048l1.351,3.779l28.109,4.624l-14.439-18.732
				l6.071,9.616c0,0-12.055-3.721-16.712-5.988C732.73,224.49,723.409,215.944,723.409,215.944z"/>
		</g>
		<g>
			<path style="fill:#FFA969;" d="M744.063,163.057c0,0,7.155,8.151,8.562,11.603c0.666,1.632,0.972,5.484,2.019,6.901
				c1.803,2.447,9.308,4.757,9.308,4.757s-0.336,2.125-1.585,4.311c-0.634,1.109-1.631,2.054-1.631,2.054s0.356,0.998,0.898,1.674
				c0.497,0.619,1.29,1.193,1.195,1.573c-0.418,1.682-6.5,3.198-6.5,3.198s3.952-0.022,6.322,0.16
				c1.043,0.082-0.681,1.881-0.07,4.643c0.413,1.869,2.377,3.03,2.496,4.94c0.072,1.161-1.676,3.899-3.054,4.698
				c-5.512,3.195-19.377,1.01-25.095-1.804c-7.132-3.511-7.642-6.301-7.642-6.301l-8.273-20.288l1.663-15.174L744.063,163.057z"/>
		</g>
		<g>
			<path style="fill:#A0481C;" d="M723.944,189.839c0,0,2.717,2.084,3.766,2.507c0.659,0.266,2.795,0.505,2.795,0.505
				s-3.47-6.436-2.886-8.923c0.162-0.69,2.027-3.021,2.027-3.021s-4.425-8.867,4.366-13.719c6.867-3.792,6.071-12.078-6.898-7.376
				c-4.763,1.727-13.325,4.458-15.966,8.784c-4.49,7.352-8.64,10.471-8.64,10.471s1.508,2.782,3.929,9.538
				c1.808,5.043-0.197,12.383,5.032,14.359c4.232,1.597,7.912,4.317,9.891,6.689c2.46,2.954,2.13,6.269,2.13,6.269
				s2.375-3.298,3.269-7.52C728.273,201.254,723.944,189.839,723.944,189.839z"/>
		</g>
		<g>
			<g>
				<g>
					<path style="fill:#FF8A54;" d="M740.664,186.555c-0.623-1.56,0.784-3.685,1.107-5.166c0.708-3.208,3.593-5.265,5.746-6.744
						c0.606-0.417,4.852,5.641,3.64,6.473c-2.796,1.919-4.385,5.216-5.476,6.83C745.313,188.499,742.335,190.777,740.664,186.555z"
						/>
				</g>
			</g>
			<g>
				<g>
					<path style="fill:#FFFFFF;" d="M749.846,182.283c-1.307-0.123-2.703,2.508-3.409,5.598c-0.115,0.505,3.074,0.196,5.452-2.051
						c0.952-0.9,0.342-1.891-0.465-2.71C750.998,182.688,750.875,182.38,749.846,182.283z"/>
				</g>
			</g>
			<g>
				<g>
					<path style="fill:#FFA969;" d="M750.142,181.781c0.991-0.4,1.636-0.292,2.146-0.023c-0.061-1.104-2.578-1.559-4.199-1.212
						c-3.615,0.784-7.343,7.823-7.013,9.28c0.183,0.803,3.414,0.648,4.092,0.758C745.264,188.615,746.086,183.416,750.142,181.781z"
						/>
				</g>
			</g>
			<g>
				<g>
					<path style="fill:#58595B;" d="M751.958,183.119c0.694,0.93,0.729,2.078,0.078,2.561c-0.647,0.484-1.734,0.122-2.428-0.807
						c-0.693-0.932-0.729-2.08-0.084-2.562C750.176,181.823,751.264,182.187,751.958,183.119z"/>
				</g>
			</g>
			<g>
				<g>
					<path style="fill:#211F1F;" d="M751.295,183.613c0.301,0.404,0.317,0.903,0.033,1.115c-0.28,0.209-0.755,0.051-1.056-0.353
						c-0.302-0.405-0.319-0.904-0.036-1.114C750.518,183.05,750.994,183.207,751.295,183.613z"/>
				</g>
			</g>
			<g>
				<path style="fill:#C96335;" d="M750.693,181.919c-0.019-0.306-0.097-0.548-0.2-0.798c-3.749,0.611-5.032,7.299-5.036,7.363
					c-0.009,0.215,0.159,0.401,0.375,0.412c0.219,0.012,0.404-0.155,0.416-0.374C746.258,188.297,747.555,182.502,750.693,181.919z"
					/>
			</g>
		</g>
		<g>
			<path style="fill:#A0481C;" d="M741.041,186.932c-0.033,0.346-0.816-0.236-0.852-0.583c-0.601-5.772,6.711-13.007,7.977-12.448
				c0.658,0.29,0.949,1.351,0.971,2.071C749.18,177.395,741.536,181.769,741.041,186.932z"/>
		</g>
		<g>
			<g>
				<path style="fill:#FFA969;" d="M721.479,200.419c4.031,3.167,9.009,3.555,11.119,0.869c2.113-2.688-4.591-2.993-5.323-8.065
					c-1.338-9.29-7.161-6.086-9.271-3.4C715.895,192.509,717.451,197.252,721.479,200.419z"/>
			</g>
			<g>
				<path style="fill:#FF8A54;" d="M723.243,196.154c1.013,1.811,2.812,2.735,4.022,2.06c1.209-0.674-0.285-2.222-1.296-4.034
					c-1.01-1.814-1.162-3.205-2.369-2.53C722.39,192.324,722.234,194.34,723.243,196.154z"/>
			</g>
		</g>
		<g>
			<g>
				
					<rect x="695.117" y="161.49" transform="matrix(0.7114 -0.7028 0.7028 0.7114 84.0786 557.6282)" style="fill:#0B2025;" width="51.834" height="29.891"/>
			</g>
			<g>
				
					<rect x="669.636" y="164.306" transform="matrix(0.7114 -0.7028 0.7028 0.7114 88.1746 548.9678)" style="fill:#4E6566;" width="85.619" height="5.654"/>
			</g>
			<g>
				<g>
					<path style="fill:#FBC41C;" d="M695.618,191.16c0,1.681,1.362,3.044,3.041,3.045c1.68,0.001,3.044-1.361,3.046-3.042
						c0-1.68-1.363-3.044-3.044-3.043C696.984,188.118,695.619,189.48,695.618,191.16z"/>
				</g>
				<g>
					<path style="fill:#FBC41C;" d="M693.166,215.391l0.005-12.198c0.003-3.027,2.456-5.481,5.488-5.481
						c3.029,0.001,5.48,2.458,5.478,5.487l-0.004,12.197L693.166,215.391z"/>
				</g>
				<g>
					<polygon style="fill:#FBC41C;" points="697.213,200.11 699.991,200.112 699.365,174.322 696.671,175.958 					"/>
				</g>
				<g>
					
						<rect x="695.033" y="170" transform="matrix(0.7114 -0.7028 0.7028 0.7114 82.7572 543.4988)" style="fill:#FBC41C;" width="16.135" height="1.981"/>
				</g>
			</g>
		</g>
	</g>
	<path style="fill:#FF8A54;" d="M730.637,303.487c-1.559,1.075-2.679-1.338-3.053-2.571c-0.376-1.239-0.361-2.533-1.124-2.588
		c-0.763-0.054-3.281,0.026-3.281,0.026s2.534,0.424,3.224,0.706c0.69,0.282,0.886,4.223,1.025,5.015
		C727.428,304.076,729.338,304.595,730.637,303.487z"/>
	<g>
		<path style="fill:#FF8A54;" d="M731.405,301.273c0.01,0.058,0.02,0.091,0.031,0.141
			C731.421,301.327,731.405,301.273,731.405,301.273z"/>
		<path style="fill:#FF8A54;" d="M732.903,300.428c-0.561,0.561-1.313-0.972-1.776-2.144c-0.586-1.485-0.432-2.798-2.849-3.179
			c-2.491-0.393-4.771-0.454-4.771-0.454s5.369,0.719,6.017,1.711s1.647,3.581,1.882,4.912c0,0,1.062-0.217,1.57-0.905
			C732.951,300.389,732.928,300.403,732.903,300.428z"/>
	</g>
	<path style="fill:#FF8A54;" d="M733.44,294.803c-0.034,0.041-0.069,0.082-0.098,0.141c-0.304,0.617-1.027-0.008-1.233-0.394
		c-0.206-0.386-0.765-1.471-2.195-1.569c-1.43-0.098-5.055-0.483-5.055-0.483s3.419,0.853,4.948,1.017
		c1.529,0.164,1.99,1.61,2.539,2.97C732.347,296.485,733.169,295.739,733.44,294.803z"/>
	<path style="opacity:0.4;fill:#4E6566;" d="M735.032,153.727c-2.747,4.035-11.229,16.531-13.587,20.427
		c-2.825,4.669,1.188,11.045,5.989,16.237c0.121,0.131,0.261,0.234,0.403,0.333l22.138-21.869L735.032,153.727z"/>
</g>
<g>
	<g>
		<g>
			<path style="fill:#0891C1;" d="M228.736,685.542l93.597,0.001v4.341l-37.781,0c-3.989,0-7.238,3.246-7.238,7.237v2.372
				c0,3.988,3.249,7.235,7.238,7.235l37.781,0v4.344l-93.597-0.001c-6.392,0-11.58-5.183-11.58-11.579v-2.372
				C217.156,690.726,222.344,685.542,228.736,685.542z"/>
		</g>
		<g>
			<path style="fill:#C9E2DC;" d="M284.552,706.729c-3.989,0-7.238-3.247-7.238-7.235v-2.372c0-3.991,3.249-7.237,7.238-7.237
				l32.674,0c0,0-3.064,1.785-3.064,7.91c0,7.151,3.064,8.935,3.064,8.935L284.552,706.729z"/>
		</g>
		<g>
			<path style="fill:#E2E0C5;" d="M358.068,765.953c3.995,0,7.239-3.245,7.239-7.236v-6.457c0-3.989-3.244-7.236-7.239-7.236
				l-126.817-0.001c0,0,3.065,3.827,3.065,9.953c0,7.151-3.065,10.975-3.065,10.975L358.068,765.953z"/>
		</g>
		<g>
			<path style="fill:#353C4F;" d="M330.667,745.024l-15.581,0c0,0,1.533,3.219,1.533,10.242c0,7.023-1.533,10.686-1.533,10.686
				l15.581,0V745.024z"/>
		</g>
		<g>
			<g>
				<path style="fill:#AF6127;" d="M315.086,766.844c-0.114,0-0.231-0.022-0.343-0.069c-0.454-0.19-0.667-0.711-0.478-1.165
					c0.014-0.034,1.464-3.62,1.464-10.343c0-6.685-1.434-9.831-1.448-9.862c-0.207-0.444-0.017-0.974,0.426-1.183
					c0.443-0.209,0.972-0.022,1.183,0.421c0.066,0.139,1.62,3.482,1.62,10.625c0,7.12-1.537,10.874-1.602,11.03
					C315.764,766.638,315.434,766.844,315.086,766.844z"/>
			</g>
		</g>
		<g>
			<path style="fill:#4E6566;" d="M347.404,740.683l-120.211-0.001v4.341l86.836,0.001c3.995,0,7.239,3.246,7.239,7.236v6.457
				c0,3.991-3.244,7.236-7.239,7.236l-86.836-0.001v4.339l120.211,0.001c6.395,0,11.581-5.179,11.581-11.575v-6.457
				C358.985,745.866,353.798,740.683,347.404,740.683z"/>
		</g>
		<g>
			<path style="fill:#678484;" d="M358.068,740.683l-43.333,0c6.395,0,11.581,5.183,11.581,11.577v6.457
				c0,6.396-5.186,11.575-11.581,11.575l43.333,0c6.395,0,11.581-5.179,11.581-11.575v-6.457
				C369.648,745.866,364.462,740.683,358.068,740.683z"/>
		</g>
		<g>
			<g>
				<path style="fill:#E44B1A;" d="M332.199,711.073l-93.599-0.001v4.342l93.599,0.001c3.985,0,7.233,3.245,7.233,7.236v6.455
					c0,3.992-3.248,7.236-7.233,7.236l-93.599-0.001v4.342l93.599,0.001c6.392,0,11.573-5.184,11.573-11.578v-6.455
					C343.773,716.254,338.592,711.073,332.199,711.073z"/>
			</g>
			<g>
				<path style="fill:#E4F4F0;" d="M332.199,736.342c3.985,0,5.452-3.245,5.452-7.236v-6.455c0-3.991-1.467-7.236-5.452-7.236
					l-88.495-0.001c0,0,3.065,3.826,3.065,9.951c0,7.147-3.065,10.976-3.065,10.976L332.199,736.342z"/>
			</g>
			<g style="opacity:0.3;">
				<path style="fill:#353C4F;" d="M303.358,725.594L303.358,725.594l-20.085,0c-0.492,0-0.891-0.399-0.891-0.89
					s0.398-0.89,0.891-0.89l20.085,0c0.492,0,0.891,0.399,0.891,0.89S303.849,725.594,303.358,725.594z"/>
			</g>
		</g>
		<g style="opacity:0.3;">
			<g>
				<polygon style="fill:#0B2025;" points="304.978,740.773 301.577,724.703 285.053,724.703 288.454,740.773 				"/>
			</g>
		</g>
		<g style="opacity:0.3;">
			<g>
				<polygon style="fill:#0B2025;" points="302.179,752.818 294.767,750.379 287.353,752.818 287.353,740.699 302.179,740.699 				
					"/>
			</g>
		</g>
	</g>
	<path style="fill:#18AED6;" d="M228.736,685.542l93.597,0.001v4.341l-37.781,0c-3.989,0-7.238,3.246-7.238,7.237v2.372
		c0,3.988,3.249,7.235,7.238,7.235l37.781,0v4.344l-93.597-0.001c-6.392,0-11.58-5.183-11.58-11.579v-2.372
		C217.156,690.726,222.344,685.542,228.736,685.542z"/>
	<path style="opacity:0.4;fill:#353C4F;" d="M284.552,706.729c-3.989,0-7.238-3.247-7.238-7.235v-2.372
		c0-3.991,3.249-7.237,7.238-7.237l37.781,0v-4.341l-39.579,0c-6.393,0-11.58,5.184-11.58,11.578v2.373
		c0,6.396,5.187,11.578,11.58,11.579l39.579,0v-4.344L284.552,706.729z"/>
	<polygon style="fill:#FBC41C;" points="301.577,751.165 293.316,748.446 285.053,751.165 285.053,724.703 301.577,724.703 	"/>
	<rect x="285.053" y="724.703" style="opacity:0.3;fill:#FFFFFF;" width="16.524" height="15.922"/>
	<path style="fill:#353C4F;" d="M333.174,715.488c0,0,1.352,2.878,1.352,10.1c0,7.222-1.352,10.68-1.352,10.68
		c3.526-0.479,6.258-3.503,6.258-7.162v-6.455C339.432,718.991,336.699,715.967,333.174,715.488z"/>
	<path style="fill:#353C4F;" d="M283.924,689.916c-3.696,0.32-6.611,3.426-6.611,7.206v2.372c0,3.776,2.914,6.883,6.611,7.203
		c0,0-1.138-3.17-1.138-8.512C282.786,692.843,283.924,689.916,283.924,689.916z"/>
	<path style="fill:#8DCCDB;" d="M332.366,715.862c0.013,0.028,1.269,2.86,1.269,9.726c0,6.924-1.279,10.325-1.291,10.356
		c-0.051,0.13-0.065,0.263-0.055,0.393c0.715-0.009,1.351-0.121,1.907-0.327c0.387-1.279,1.219-4.69,1.219-10.422
		c0-5.516-0.779-8.59-1.19-9.829c-0.563-0.213-1.207-0.33-1.934-0.34C332.28,715.567,332.3,715.719,332.366,715.862z"/>
</g>
<g>
	<g>
		<path style="fill:#E2E0C5;" d="M688.844,765.619c4.001,0,7.25-3.249,7.25-7.246l0-6.466c0-3.995-3.249-7.246-7.25-7.246
			l-116.336-0.001c0,0,3.07,3.833,3.07,9.967c0,7.161-3.07,10.991-3.07,10.991L688.844,765.619z"/>
		<path style="fill:#353C4F;" d="M672.068,744.661l-15.603,0c0,0,1.536,3.223,1.536,10.256c0,7.033-1.536,10.702-1.536,10.702
			l15.603,0V744.661z"/>
		<g>
			<path style="fill:#7F4632;" d="M656.464,766.511c-0.114,0-0.231-0.022-0.344-0.069c-0.455-0.19-0.668-0.712-0.478-1.167
				c0.014-0.034,1.466-3.625,1.466-10.357c0-6.694-1.435-9.845-1.45-9.876c-0.208-0.445-0.017-0.976,0.427-1.185
				c0.444-0.21,0.974-0.022,1.185,0.422c0.066,0.139,1.622,3.487,1.622,10.64c0,7.13-1.539,10.889-1.604,11.046
				C657.144,766.305,656.813,766.511,656.464,766.511z"/>
		</g>
		<path style="fill:#C9320E;" d="M678.18,740.313l-109.735-0.001v4.347l86.961,0c4.001,0,7.249,3.251,7.249,7.246l0,6.466
			c0,3.996-3.248,7.246-7.249,7.246l-86.961-0.001v4.346l109.735,0.001c6.404,0,11.598-5.187,11.598-11.591v-6.466
			C689.778,745.504,684.584,740.313,678.18,740.313z"/>
		<path style="fill:#EF4511;" d="M688.844,740.313l-32.731,0c6.404,0,11.597,5.19,11.597,11.594l0,6.466
			c0,6.405-5.194,11.592-11.598,11.592l32.731,0c6.404,0,11.598-5.187,11.598-11.592v-6.466
			C700.441,745.504,695.248,740.314,688.844,740.313z"/>
	</g>
	<g>
		<g>
			<path style="fill:#EF4511;" d="M676.95,628.611l-95.142,0.002V624.2l95.142-0.002c4.051,0,7.352-3.298,7.352-7.355v-6.561
				c0-4.057-3.301-7.355-7.352-7.355l-95.142,0.002v-4.413l95.142-0.002c6.498,0,11.764,5.27,11.764,11.768v6.561
				C688.714,623.344,683.448,628.611,676.95,628.611z"/>
			<path style="fill:#DAEAE5;" d="M676.95,602.926c4.051,0,5.542,3.298,5.542,7.355v6.561c0,4.057-1.491,7.355-5.542,7.355
				l-89.953,0.002c0,0,3.116-3.889,3.116-10.115c0-7.265-3.116-11.156-3.116-11.156L676.95,602.926z"/>
		</g>
		<path style="fill:#353C4F;" d="M677.94,624.123c0,0,1.374-2.926,1.374-10.266c0-7.341-1.374-10.856-1.374-10.856
			c3.584,0.487,6.362,3.56,6.362,7.28v6.561C684.302,620.563,681.524,623.636,677.94,624.123z"/>
		<path style="fill:#AF6127;" d="M677.119,623.743c0.013-0.028,1.29-2.907,1.29-9.886c0-7.038-1.3-10.495-1.312-10.526
			c-0.051-0.132-0.066-0.268-0.056-0.4c0.727,0.009,1.373,0.123,1.939,0.333c0.393,1.3,1.239,4.767,1.239,10.594
			c0,5.607-0.792,8.731-1.21,9.991c-0.573,0.217-1.226,0.336-1.966,0.346C677.031,624.043,677.052,623.889,677.119,623.743z"/>
	</g>
	<g>
		<path style="fill:#E2E0C5;" d="M623.734,568.715c3.989,0,7.238-3.247,7.238-7.235v-2.373c0-3.991-3.249-7.238-7.238-7.238
			l-32.674,0c0,0,3.064,1.785,3.064,7.91c0,7.151-3.064,8.935-3.064,8.935L623.734,568.715z"/>
		<path style="fill:#F45F14;" d="M668.886,547.529l-82.933,0.001v4.341l37.781,0c3.989,0,7.238,3.246,7.238,7.238v2.373
			c0,3.988-3.249,7.235-7.238,7.235l-37.781,0v4.344l82.933-0.001c6.393,0,11.58-5.183,11.58-11.579v-2.372
			C680.466,552.713,675.279,547.529,668.886,547.529z"/>
		<path style="fill:#D3380F;" d="M623.734,568.715c3.989,0,7.238-3.247,7.238-7.235v-2.372c0-3.991-3.249-7.238-7.238-7.237
			l-37.781,0v-4.341l39.579,0c6.393,0,11.58,5.184,11.58,11.579v2.372c0,6.396-5.187,11.578-11.58,11.579l-39.579,0v-4.344
			L623.734,568.715z"/>
		<path style="fill:#353C4F;" d="M624.362,551.902c3.696,0.32,6.61,3.426,6.61,7.206v2.372c0,3.776-2.914,6.883-6.61,7.203
			c0,0,1.138-3.17,1.138-8.512C625.499,554.829,624.362,551.902,624.362,551.902z"/>
	</g>
	<g>
		<path style="fill:#E2E0C5;" d="M672.521,653.943c4.004,0,7.255-3.252,7.255-7.252l0-6.471c0-3.998-3.251-7.252-7.255-7.252
			l-82.948-0.001c0,0,3.072,3.836,3.072,9.975c0,7.166-3.072,10.999-3.072,10.999L672.521,653.943z"/>
		<path style="fill:#353C4F;" d="M664.895,632.968l-15.615,0c0,0,1.537,3.226,1.537,10.265c0,7.039-1.537,10.71-1.537,10.71
			l15.615,0L664.895,632.968z"/>
		<g>
			<path style="fill:#353C4F;" d="M649.279,654.835c-0.115,0-0.231-0.022-0.344-0.069c-0.455-0.19-0.669-0.713-0.479-1.168
				c0.014-0.034,1.467-3.628,1.468-10.365c0-6.7-1.437-9.853-1.451-9.884c-0.208-0.445-0.017-0.976,0.427-1.186
				c0.444-0.21,0.974-0.022,1.186,0.422c0.066,0.139,1.623,3.49,1.623,10.648c0,7.136-1.54,10.898-1.606,11.054
				C649.96,654.629,649.628,654.835,649.279,654.835z"/>
		</g>
		<path style="fill:#0B5384;" d="M672.521,628.618l-87.014-0.001v4.351l62.713,0c4.004,0,7.254,3.253,7.254,7.252l0,6.471
			c0,4-3.251,7.252-7.254,7.252l-62.713,0v4.349l87.014,0.001c6.409,0,11.606-5.191,11.606-11.601v-6.471
			C684.127,633.812,678.93,628.618,672.521,628.618z"/>
		<path style="fill:#117EC9;" d="M683.185,628.618l-34.258,0c6.409,0,11.606,5.194,11.606,11.603l0,6.471
			c0,6.41-5.197,11.601-11.606,11.601l34.258,0c6.409,0,11.606-5.191,11.606-11.601v-6.471
			C694.791,633.812,689.594,628.618,683.185,628.618z"/>
		<path style="opacity:0.3;fill:#005AA6;" d="M657.896,654.054c-2.129,2.588-5.356,4.238-8.969,4.238l34.258,0
			c3.613,0,6.84-1.651,8.969-4.238H657.896z"/>
		<path style="fill:#18AED6;" d="M683.185,628.618l-34.258,0c4.684,0,8.711,2.78,10.544,6.776h34.257
			C691.896,631.398,687.869,628.618,683.185,628.618z"/>
	</g>
	<g>
		<path style="fill:#C9E2DC;" d="M630.585,719.122c-3.989,0-7.238,3.247-7.238,7.235v2.372c0,3.991,3.249,7.237,7.238,7.237
			l43.338-0.001c0,0-3.064-1.785-3.064-7.91c0-7.151,3.064-8.935,3.064-8.935L630.585,719.122z"/>
		<path style="fill:#0C8C8C;" d="M596.096,740.309l82.933-0.001v-4.341l-48.445,0.001c-3.989,0-7.238-3.246-7.238-7.237v-2.372
			c0-3.988,3.249-7.235,7.238-7.235l48.445-0.001v-4.344l-82.933,0.001c-6.392,0-11.58,5.183-11.58,11.579v2.373
			C584.516,735.125,589.704,740.309,596.096,740.309z"/>
		<path style="fill:#01A9B4;" d="M630.585,719.122c-3.989,0-7.238,3.247-7.238,7.235v2.372c0,3.991,3.249,7.237,7.238,7.237
			l48.445-0.001l0,4.341l-50.243,0.001c-6.393,0-11.58-5.184-11.58-11.578v-2.372c0-6.396,5.187-11.579,11.58-11.579l50.243-0.001
			v4.344L630.585,719.122z"/>
		<path style="fill:#353C4F;" d="M629.957,735.935c-3.696-0.32-6.61-3.426-6.61-7.206v-2.372c0-3.776,2.914-6.883,6.611-7.203
			c0,0-1.138,3.17-1.138,8.512C628.819,733.008,629.957,735.935,629.957,735.935z"/>
	</g>
	<g>
		<path style="fill:#DAEAE5;" d="M585.096,662.155c-3.63,0-6.579,2.949-6.579,6.575v5.867c0,3.625,2.948,6.575,6.578,6.575
			l103.861,0c0,0-2.785-3.478-2.785-9.044c0-6.498,2.785-9.973,2.785-9.973L585.096,662.155z"/>
		<path style="fill:#353C4F;" d="M620.659,681.173h14.159c0,0-1.393-2.925-1.393-9.307c0-6.382,1.393-9.711,1.393-9.711h-14.159
			L620.659,681.173z"/>
		<g>
			<path style="fill:#8DCCDB;" d="M634.818,661.346c0.104,0,0.21,0.02,0.312,0.063c0.412,0.173,0.606,0.646,0.434,1.059
				c-0.013,0.031-1.331,3.289-1.331,9.398c0,6.075,1.303,8.934,1.316,8.962c0.189,0.404,0.016,0.885-0.387,1.075
				c-0.402,0.19-0.883,0.02-1.075-0.382c-0.06-0.126-1.472-3.164-1.472-9.655c0-6.47,1.396-9.881,1.456-10.023
				C634.202,661.532,634.502,661.346,634.818,661.346z"/>
		</g>
		<path style="fill:#AF6127;" d="M595.76,685.117l96.884,0v-3.945l-56.865,0c-3.63,0-6.578-2.95-6.578-6.575v-5.867
			c0-3.626,2.948-6.575,6.578-6.575l56.865,0v-3.943l-96.884,0c-5.811,0-10.524,4.707-10.524,10.518l0,5.867
			C585.236,680.408,589.949,685.117,595.76,685.117z"/>
		<path style="fill:#894229;" d="M585.096,685.117l50.041,0c-5.811,0-10.524-4.709-10.524-10.52v-5.867
			c0-5.812,4.713-10.518,10.524-10.518l-50.041,0c-5.811,0-10.524,4.707-10.524,10.518v5.867
			C574.572,680.408,579.285,685.117,585.096,685.117z"/>
	</g>
	<g>
		<g>
			<path style="fill:#E2E0C5;" d="M659.101,709.577c4.674,0,8.481-3.804,8.481-8.477v-2.78c0-4.676-3.807-8.48-8.481-8.48l-60.336,0
				c0,0,3.59,2.092,3.59,9.268c0,8.378-3.59,10.469-3.59,10.469L659.101,709.577z"/>
			<path style="fill:#FBC41C;" d="M680.885,684.753l-88.103,0.001v5.086l66.319,0c4.674,0,8.481,3.804,8.481,8.48v2.78
				c0,4.673-3.807,8.477-8.481,8.477l-66.319,0v5.089l88.103-0.001c7.49,0,13.568-6.072,13.568-13.566v-2.78
				C694.452,690.827,688.374,684.753,680.885,684.753z"/>
			<path style="fill:#ED9D11;" d="M659.101,709.577c4.674,0,8.481-3.804,8.481-8.477v-2.78c0-4.676-3.807-8.48-8.481-8.48l-66.319,0
				v-5.086l68.426,0c7.49,0,13.568,6.074,13.568,13.566v2.78c0,7.494-6.078,13.566-13.568,13.566l-68.426,0v-5.089L659.101,709.577z
				"/>
			<path style="fill:#353C4F;" d="M659.836,689.878c4.331,0.375,7.745,4.015,7.745,8.443v2.78c0,4.425-3.415,8.065-7.745,8.44
				c0,0,1.333-3.714,1.333-9.973C661.169,693.307,659.836,689.878,659.836,689.878z"/>
		</g>
	</g>
	<g>
		<path style="fill:#E4F4F0;" d="M589.347,576.835c-3.512,0-6.365,2.853-6.365,6.361v5.677c0,3.507,2.852,6.361,6.365,6.361
			l75.238,0.001c0,0-2.695-3.365-2.695-8.75c0-6.286,2.695-9.649,2.695-9.649L589.347,576.835z"/>
		<path style="fill:#353C4F;" d="M601.173,595.235l13.698,0c0,0-1.348-2.83-1.348-9.004c0-6.174,1.348-9.395,1.348-9.395l-13.698,0
			V595.235z"/>
		<g>
			<path style="fill:#8DCCDB;" d="M614.872,576.053c0.1,0,0.203,0.02,0.302,0.061c0.399,0.167,0.587,0.625,0.42,1.024
				c-0.012,0.029-1.287,3.182-1.287,9.093c0,5.877,1.26,8.643,1.273,8.67c0.182,0.391,0.015,0.857-0.375,1.04
				c-0.389,0.184-0.855,0.019-1.04-0.37c-0.058-0.122-1.424-3.061-1.424-9.341c0-6.26,1.351-9.56,1.409-9.697
				C614.276,576.233,614.566,576.053,614.872,576.053z"/>
		</g>
		<path style="fill:#01A9B4;" d="M577.084,599.051l89.469,0.001v-3.817l-50.751-0.001c-3.512,0-6.364-2.854-6.364-6.361v-5.677
			c0-3.509,2.852-6.361,6.364-6.361l50.751,0.001v-3.815l-89.469-0.001c-5.622,0-10.182,4.553-10.182,10.176v5.677
			C566.902,594.495,571.461,599.051,577.084,599.051z"/>
		<path style="opacity:0.4;fill:#353C4F;" d="M577.083,599.051l38.097,0c-5.622,0-10.182-4.556-10.182-10.178v-5.677
			c0-5.623,4.56-10.176,10.182-10.176l-38.097,0c-5.622,0-10.182,4.553-10.182,10.176v5.677
			C566.902,594.495,571.461,599.051,577.083,599.051z"/>
	</g>
	<g>
		<path style="opacity:0.2;fill:#353C4F;" d="M623.734,568.715l-25.937,0l0,0L623.734,568.715c0.01,0,0.02-0.001,0.03-0.001
			C623.754,568.714,623.744,568.715,623.734,568.715z"/>
		<path style="opacity:0.2;fill:#353C4F;" d="M625.735,568.427c0.212-0.061,0.419-0.132,0.622-0.212
			C626.154,568.295,625.946,568.366,625.735,568.427z"/>
		<path style="opacity:0.2;fill:#353C4F;" d="M634.938,568.216c-2.101,2.928-5.526,4.842-9.404,4.843l43.352,0
			c3.878,0,7.304-1.914,9.406-4.843H634.938z"/>
		<path style="opacity:0.2;fill:#353C4F;" d="M625.098,568.582c0.213-0.041,0.422-0.093,0.629-0.153
			C625.521,568.489,625.311,568.54,625.098,568.582z"/>
		<path style="opacity:0.2;fill:#353C4F;" d="M624.435,568.68c0.175-0.017,0.347-0.046,0.519-0.076
			C624.782,568.634,624.61,568.662,624.435,568.68z"/>
	</g>
	<path style="fill:#F96921;" d="M688.844,740.313l-32.731,0c4.578,0,8.525,2.659,10.411,6.51h32.731
		C697.369,742.972,693.421,740.313,688.844,740.313z"/>
	<path style="fill:#9E5B2E;" d="M575.882,663.651h50.041c1.793-3.243,5.246-5.439,9.214-5.439h-50.041
		C581.128,658.211,577.675,660.408,575.882,663.651z"/>
</g>
<g>
	<g>
		<path style="fill:#E2E0C5;" d="M457.7,650.125c3.989,0,7.238-3.247,7.238-7.235v-2.372c0-3.991-3.249-7.237-7.238-7.237l-32.674,0
			c0,0,3.064,1.785,3.064,7.91c0,7.151-3.064,8.935-3.064,8.935L457.7,650.125z"/>
		<path style="fill:#FBC41C;" d="M492.188,628.939l-72.269,0.001v4.341l37.781,0c3.989,0,7.238,3.246,7.238,7.237v2.372
			c0,3.988-3.249,7.235-7.238,7.235l-37.781,0v4.344l72.269-0.001c6.392,0,11.58-5.183,11.58-11.579v-2.372
			C503.768,634.123,498.581,628.939,492.188,628.939z"/>
		<path style="fill:#ED9D11;" d="M462.415,648.367c-1.268,1.093-2.914,1.759-4.715,1.759l-34.184,0v4.343l68.673,0
			c4.412,0,8.247-2.47,10.202-6.102H462.415z"/>
		<path style="fill:#EA8913;" d="M457.7,650.125c3.989,0,7.238-3.247,7.238-7.235v-2.372c0-3.991-3.249-7.237-7.238-7.237l-37.781,0
			v-4.341l39.579,0c6.393,0,11.58,5.184,11.58,11.578v2.372c0,6.396-5.187,11.579-11.58,11.579l-39.579,0v-4.344L457.7,650.125z"/>
		<path style="fill:#353C4F;" d="M458.328,633.312c3.696,0.32,6.611,3.426,6.611,7.206v2.372c0,3.776-2.914,6.883-6.611,7.203
			c0,0,1.138-3.17,1.138-8.512S458.328,633.312,458.328,633.312z"/>
	</g>
	<g>
		<path style="fill:#E2E0C5;" d="M482.509,765.203c4.674,0,8.481-3.804,8.481-8.477v-2.78c0-4.676-3.807-8.48-8.481-8.48l-71,0
			c0,0,3.59,2.092,3.59,9.268c0,8.379-3.59,10.469-3.59,10.469L482.509,765.203z"/>
		<path style="fill:#18AED6;" d="M504.292,740.38l-98.766,0.001v5.086l76.983,0c4.674,0,8.481,3.804,8.481,8.48v2.78
			c0,4.673-3.807,8.477-8.481,8.477l-76.983,0v5.089l98.766-0.001c7.49,0,13.568-6.072,13.568-13.566v-2.78
			C517.86,746.453,511.782,740.38,504.292,740.38z"/>
		<path style="opacity:0.4;fill:#353C4F;" d="M482.509,765.203c4.674,0,8.481-3.804,8.481-8.477v-2.78
			c0-4.676-3.807-8.48-8.481-8.48l-76.983,0v-5.086l79.09,0c7.49,0,13.568,6.074,13.568,13.566v2.78
			c0,7.494-6.078,13.566-13.568,13.567l-79.09,0v-5.089L482.509,765.203z"/>
		<path style="fill:#353C4F;" d="M483.244,745.504c4.331,0.375,7.745,4.014,7.745,8.443v2.78c0,4.425-3.414,8.065-7.745,8.44
			c0,0,1.333-3.714,1.333-9.973C484.578,748.933,483.244,745.504,483.244,745.504z"/>
	</g>
	<g>
		<path style="fill:#894229;" d="M408.41,684.31l109.502,0.002l0,5.079l-76.869-0.001c-4.667,0-8.468,3.798-8.468,8.468v2.776
			c0,4.666,3.801,8.464,8.468,8.465l76.869,0.001v5.082l-109.502-0.002c-7.479,0-13.548-6.064-13.548-13.547v-2.776
			C394.863,690.374,400.932,684.309,408.41,684.31z"/>
		<path style="fill:#E4F4F0;" d="M441.044,709.097c-4.667,0-8.468-3.799-8.468-8.465v-2.776c0-4.669,3.801-8.468,8.468-8.468
			l70.894,0.001c0,0-3.585,2.089-3.585,9.254c0,8.366,3.585,10.454,3.585,10.454L441.044,709.097z"/>
		<path style="fill:#AF6127;" d="M441.044,709.097c-4.667,0-8.468-3.799-8.468-8.465v-2.776c0-4.669,3.801-8.468,8.468-8.468
			l76.869,0.001v-5.079l-78.973-0.001c-7.479,0-13.548,6.065-13.548,13.546v2.776c0,7.483,6.069,13.547,13.548,13.547l78.973,0.001
			v-5.082L441.044,709.097z"/>
		<path style="fill:#353C4F;" d="M440.309,689.426c-4.324,0.374-7.734,4.009-7.734,8.43v2.776c0,4.418,3.409,8.053,7.734,8.427
			c0,0-1.331-3.708-1.331-9.959C438.978,692.851,440.309,689.426,440.309,689.426z"/>
	</g>
	<g>
		<g>
			<g>
				<path style="fill:#93B224;" d="M415.097,654.252l95.142-0.002v4.413l-95.142,0.002c-4.051,0-7.352,3.298-7.352,7.356v6.561
					c0,4.057,3.301,7.355,7.352,7.355l95.142-0.002v4.413l-95.142,0.002c-6.498,0-11.764-5.27-11.764-11.768v-6.562
					C403.333,659.519,408.599,654.253,415.097,654.252z"/>
			</g>
			<g>
				<path style="fill:#E4F4F0;" d="M415.097,679.938c-4.051,0-5.542-3.298-5.542-7.355l0-6.561c0-4.057,1.491-7.355,5.542-7.356
					l89.953-0.002c0,0-3.116,3.889-3.116,10.116c0,7.265,3.116,11.157,3.116,11.157L415.097,679.938z"/>
			</g>
			<g style="opacity:0.3;">
				<path style="fill:#353C4F;" d="M444.413,669.012c-0.5,0-0.905-0.405-0.905-0.905c0-0.5,0.405-0.905,0.905-0.905l20.417,0
					c0.5,0,0.905,0.405,0.905,0.905c0,0.5-0.405,0.905-0.905,0.905L444.413,669.012z"/>
			</g>
		</g>
		<g style="opacity:0.3;">
			<g>
				<polygon style="fill:#0B2025;" points="442.767,684.442 446.224,668.107 463.021,668.107 459.564,684.442 				"/>
			</g>
		</g>
		<g>
			<polygon style="fill:#D3380F;" points="446.224,695.006 454.621,692.242 463.021,695.005 463.021,668.107 446.224,668.107 			"/>
		</g>
		<g>
			<rect x="446.224" y="668.107" style="fill:#F45F14;" width="16.797" height="16.184"/>
		</g>
		<g>
			<path style="fill:#353C4F;" d="M414.107,658.74c0,0-1.374,2.926-1.374,10.266s1.374,10.856,1.374,10.856
				c-3.584-0.487-6.362-3.56-6.362-7.281v-6.561C407.745,662.301,410.523,659.227,414.107,658.74z"/>
		</g>
		<g>
			<path style="fill:#AF6127;" d="M414.928,659.121c-0.013,0.028-1.29,2.907-1.29,9.886c0,7.039,1.3,10.495,1.312,10.527
				c0.051,0.132,0.067,0.268,0.056,0.4c-0.727-0.01-1.373-0.123-1.939-0.333c-0.393-1.3-1.24-4.767-1.24-10.594
				c0-5.607,0.792-8.731,1.21-9.991c0.573-0.217,1.226-0.336,1.966-0.346C415.016,658.82,414.995,658.975,414.928,659.121z"/>
		</g>
	</g>
	<g>
		<path style="fill:#E2E0C5;" d="M516.583,736.509c3.512,0,6.365-2.853,6.365-6.361v-5.677c0-3.507-2.852-6.362-6.365-6.362
			l-111.495-0.001c0,0,2.695,3.365,2.695,8.75c0,6.286-2.695,9.649-2.695,9.649L516.583,736.509z"/>
		<path style="fill:#353C4F;" d="M492.493,718.109l-13.699,0c0,0,1.348,2.83,1.348,9.004c0,6.175-1.348,9.395-1.348,9.395l13.699,0
			L492.493,718.109z"/>
		<g>
			<path style="fill:#9E5B2E;" d="M478.794,737.291c-0.1,0-0.203-0.02-0.302-0.061c-0.399-0.167-0.587-0.626-0.42-1.024
				c0.012-0.03,1.287-3.182,1.287-9.093c0-5.877-1.26-8.643-1.273-8.671c-0.182-0.391-0.015-0.857,0.375-1.04
				c0.389-0.184,0.855-0.019,1.04,0.37c0.058,0.122,1.424,3.062,1.424,9.341c0,6.26-1.351,9.56-1.409,9.698
				C479.391,737.11,479.1,737.291,478.794,737.291z"/>
		</g>
		<path style="fill:#EA8913;" d="M505.919,714.292l-104.398-0.001v3.817l76.344,0.001c3.512,0,6.364,2.854,6.364,6.361v5.677
			c0,3.509-2.852,6.361-6.364,6.361l-76.344-0.001v3.815l104.398,0.001c5.622,0,10.182-4.554,10.182-10.177v-5.677
			C516.101,718.849,511.541,714.292,505.919,714.292z"/>
		<path style="fill:#FBC41C;" d="M516.583,714.292l-38.097,0c5.622,0,10.182,4.557,10.182,10.178v5.677
			c0,5.623-4.56,10.177-10.182,10.177l38.097,0c5.622,0,10.182-4.554,10.182-10.177v-5.677
			C526.764,718.849,522.205,714.292,516.583,714.292z"/>
	</g>
	<path style="fill:#ED9D11;" d="M487.38,735.094c-1.74,3.119-5.069,5.23-8.895,5.23l38.097,0c3.826,0,7.155-2.111,8.895-5.23H487.38
		z"/>
</g>
<g>
	<path style="fill:#314444;" d="M301.565,318.605l-0.051,3.691v0.051c1.566-0.068,2.827-0.103,3.781-0.103h11.855
		c0,1.265-0.051,2.239-0.153,2.922c-0.41,2.632-2.153,3.948-5.229,3.948H298.13c-1.47,0-2.623-0.427-3.461-1.282
		c-0.838-0.854-1.256-2.016-1.256-3.486v-30.042l0.359-0.359h22.096c0.205,0.992,0.308,2.068,0.308,3.23
		c0,1.162-0.239,2.376-0.717,3.64h-13.945l0.051,3.691v3.589c0.885-0.034,2.041-0.051,3.471-0.051h7.808
		c0.308,0.957,0.462,2.051,0.462,3.281c0,1.23-0.154,2.358-0.462,3.384h-11.278V318.605z"/>
	<path style="fill:#314444;" d="M335.707,313.529c0-2.289-0.768-3.435-2.307-3.435c-0.547,0-1.102,0.163-1.666,0.487
		c-0.565,0.325-1.137,0.743-1.718,1.256v17.123c-0.581,0.103-1.213,0.18-1.897,0.231c-0.684,0.051-1.385,0.077-2.102,0.077
		c-0.718,0-1.419-0.026-2.103-0.077c-0.684-0.051-1.316-0.128-1.896-0.231v-25.582l0.358-0.359h2.974
		c2.186,0,3.622,1.077,4.307,3.23c2.426-2.221,4.784-3.332,7.074-3.332c2.769,0,4.768,1.179,5.998,3.537
		c2.666-2.358,5.195-3.537,7.588-3.537c2.392,0,4.178,0.743,5.357,2.23c1.179,1.487,1.768,3.461,1.768,5.921v11.484
		c0,2.222,0.427,3.914,1.281,5.075c-1.299,1.162-2.853,1.743-4.665,1.743c-1.777,0-2.991-0.41-3.64-1.23
		c-0.649-0.82-0.975-2.067-0.975-3.742v-10.92c0-2.256-0.803-3.383-2.409-3.383c-0.991,0-2.085,0.598-3.281,1.794v17.072
		c-0.581,0.103-1.213,0.18-1.896,0.231c-0.685,0.051-1.384,0.077-2.102,0.077c-0.718,0-1.428-0.026-2.128-0.077
		c-0.701-0.051-1.342-0.128-1.923-0.231V313.529z"/>
	<path style="fill:#314444;" d="M375.986,329.473c-1.566,0-3.134-0.359-4.7-1.077v6.818c0,1.777-0.325,3.025-0.975,3.742
		c-0.649,0.718-1.794,1.077-3.434,1.077h-3.076l-0.358-0.359v-36.296l0.358-0.359h2.102c1.947,0,3.4,0.838,4.357,2.512
		c1.941-1.948,4.31-2.922,7.104-2.922c1.431,0,2.69,0.316,3.78,0.949c1.091,0.633,2.02,1.53,2.785,2.691
		c0.767,1.162,1.347,2.563,1.738,4.204c0.392,1.641,0.588,3.486,0.588,5.537c0,2.051-0.265,3.914-0.793,5.588
		c-0.527,1.675-1.251,3.094-2.17,4.255c-0.92,1.162-2.001,2.059-3.244,2.691C378.805,329.157,377.45,329.473,375.986,329.473z
		 M375.028,309.018c-1.435,0-2.684,0.684-3.742,2.051v11.279c1.298,0.787,2.409,1.179,3.332,1.179c2.324,0,3.486-2.58,3.486-7.741
		C378.104,311.274,377.079,309.018,375.028,309.018z"/>
	<path style="fill:#314444;" d="M409.479,305.634c2.46,2.461,3.69,5.981,3.69,10.561c0,2.05-0.265,3.914-0.794,5.588
		c-0.53,1.675-1.3,3.102-2.308,4.281c-1.008,1.179-2.247,2.085-3.717,2.717c-1.47,0.632-3.161,0.948-5.075,0.948
		c-1.914,0-3.598-0.325-5.05-0.974c-1.453-0.649-2.684-1.564-3.691-2.743c-1.008-1.179-1.769-2.606-2.281-4.281
		c-0.513-1.674-0.768-3.52-0.768-5.537c0-2.051,0.256-3.904,0.768-5.563c0.513-1.657,1.265-3.084,2.256-4.281
		c0.991-1.196,2.222-2.119,3.691-2.768c1.469-0.649,3.161-0.974,5.075-0.974C404.66,302.61,407.394,303.618,409.479,305.634z
		 M401.302,308.608c-0.758,0-1.368,0.179-1.832,0.538c-0.465,0.359-0.835,0.846-1.11,1.461c-0.275,0.615-0.465,1.325-0.568,2.128
		c-0.103,0.803-0.154,1.666-0.154,2.589c0,1.435,0.042,2.675,0.129,3.717c0.086,1.043,0.258,1.914,0.516,2.615
		c0.258,0.701,0.62,1.222,1.085,1.564c0.465,0.342,1.075,0.513,1.833,0.513c1.514,0,2.512-0.658,2.994-1.974
		c0.481-1.315,0.723-3.186,0.723-5.613c0-2.461-0.241-4.332-0.723-5.614C403.711,309.249,402.747,308.608,401.302,308.608z"/>
	<path style="fill:#314444;" d="M419.886,325.526l-4.974-21.686c1.675-0.615,3.128-0.923,4.358-0.923c1.264,0,2.17,0.274,2.717,0.82
		c0.546,0.547,0.939,1.419,1.179,2.615l1.59,8.254c0.751,3.726,1.195,6.391,1.333,7.998c0.033,0.308,0.17,0.461,0.41,0.461
		l2.819-19.43c1.196-0.239,2.769-0.359,4.717-0.359c1.948,0,3.503,0.12,4.665,0.359l2.871,18.968c0.033,0.308,0.17,0.461,0.41,0.461
		c0.615-4.067,1.076-6.887,1.384-8.459l2.307-11.176c0.82-0.239,1.931-0.359,3.333-0.359c1.742,0,3.058,0.223,3.947,0.666
		l0.256,0.513l-5.998,24.71c-1.265,0.205-2.974,0.308-5.126,0.308c-2.153,0-3.607-0.24-4.358-0.718
		c-0.752-0.478-1.23-1.452-1.436-2.922l-0.819-5.486c-0.513-3.178-0.958-6.408-1.333-9.689h-0.308
		c-0.035,0.274-0.48,3.469-1.333,9.587l-1.436,8.92c-1.641,0.205-3.452,0.308-5.434,0.308c-1.983,0-3.358-0.256-4.127-0.769
		C420.731,327.986,420.193,326.996,419.886,325.526z"/>
	<path style="fill:#314444;" d="M476.023,318.759h-13.331c0.068,1.522,0.46,2.706,1.174,3.551c0.715,0.846,1.89,1.268,3.524,1.268
		c0.816,0,1.762-0.115,2.835-0.347c1.071-0.231,2.306-0.611,3.702-1.14c1.123,1.162,1.821,2.735,2.094,4.717
		c-2.734,1.948-6.084,2.922-10.048,2.922c-2.153,0-3.957-0.342-5.409-1.025c-1.453-0.683-2.632-1.64-3.537-2.871
		c-0.906-1.23-1.547-2.683-1.923-4.358c-0.376-1.674-0.564-3.503-0.564-5.485c0-1.914,0.231-3.682,0.692-5.306
		c0.461-1.623,1.161-3.033,2.102-4.23c0.939-1.196,2.136-2.135,3.589-2.82c1.452-0.683,3.152-1.025,5.101-1.025
		c1.641,0,3.118,0.274,4.435,0.82c1.315,0.547,2.435,1.299,3.358,2.256c0.922,0.957,1.631,2.102,2.127,3.435
		c0.495,1.333,0.743,2.786,0.743,4.357C476.688,315.563,476.466,317.323,476.023,318.759z M462.641,313.222h6.716v-0.564
		c0-1.264-0.28-2.307-0.839-3.127c-0.561-0.82-1.399-1.23-2.519-1.23c-1.086,0-1.892,0.385-2.417,1.153
		C463.057,310.223,462.743,311.479,462.641,313.222z"/>
	<path style="fill:#314444;" d="M480.02,307.07c0.171-0.683,0.495-1.443,0.974-2.281c0.479-0.837,0.957-1.444,1.436-1.82
		c3.145,0.24,5.332,1.794,6.563,4.665c1.298-3.076,3.435-4.614,6.408-4.614c0.888,0,2.016,0.137,3.384,0.41
		c0,1.06-0.18,2.316-0.539,3.768c-0.358,1.453-0.846,2.691-1.461,3.717c-0.581-0.205-1.453-0.376-2.614-0.513
		c-1.71,0-3.11,0.872-4.204,2.615v15.944c-1.128,0.205-2.452,0.308-3.973,0.308c-1.521,0-2.863-0.103-4.024-0.308v-16.559
		C481.968,309.838,481.318,308.061,480.02,307.07z"/>
	<path style="fill:#314444;" d="M512.162,309.274v19.686c-0.581,0.103-1.214,0.18-1.897,0.231c-0.685,0.051-1.385,0.077-2.103,0.077
		c-0.718,0-1.427-0.026-2.127-0.077c-0.701-0.051-1.342-0.128-1.923-0.231v-16.969c0-1.982-0.804-2.973-2.409-2.973h-0.77
		c-0.205-0.649-0.308-1.555-0.308-2.717c0-1.128,0.102-2.084,0.308-2.871c0.889-0.068,1.709-0.128,2.461-0.179
		c0.752-0.051,1.436-0.077,2.051-0.077h1.128c1.743,0,3.109,0.547,4.102,1.641C511.666,305.908,512.162,307.395,512.162,309.274z
		 M503.19,293.074c0.991-0.546,2.272-0.82,3.846-0.82c1.605,0,2.853,0.274,3.742,0.82c0.41,0.923,0.615,1.915,0.615,2.973
		c0,1.06-0.205,2.051-0.615,2.973c-0.992,0.513-2.29,0.769-3.896,0.769c-1.606,0-2.837-0.256-3.691-0.769
		c-0.41-0.923-0.615-1.914-0.615-2.973C502.575,294.989,502.78,293.997,503.19,293.074z"/>
	<path style="fill:#314444;" d="M540.255,312.043v10.509c0,2.256,0.41,3.948,1.231,5.075c-1.299,1.162-2.854,1.743-4.665,1.743
		c-1.777,0-2.991-0.41-3.64-1.23c-0.649-0.82-0.975-2.067-0.975-3.742v-10.92c0-1.161-0.153-2.016-0.461-2.563
		c-0.308-0.546-0.906-0.82-1.795-0.82c-0.512,0-1.094,0.137-1.742,0.41c-0.65,0.274-1.316,0.718-2,1.333v17.123
		c-0.581,0.103-1.213,0.18-1.896,0.231c-0.685,0.051-1.385,0.077-2.102,0.077c-0.718,0-1.419-0.026-2.103-0.077
		c-0.684-0.051-1.316-0.128-1.897-0.231v-25.582l0.358-0.359h3.025c2.084,0,3.485,1.025,4.203,3.076
		c2.393-2.119,4.768-3.178,7.126-3.178c2.393,0,4.212,0.829,5.46,2.487C539.631,307.062,540.255,309.274,540.255,312.043z"/>
	<path style="fill:#314444;" d="M561.838,305.019c1.161-1.299,2.768-1.982,4.818-2.051c0.547,0.41,1.068,1.025,1.564,1.846
		c0.494,0.82,0.794,1.572,0.896,2.256c-0.957,0.65-1.436,1.88-1.436,3.691v13.534c0,3.145-0.248,5.75-0.743,7.818
		c-0.496,2.067-1.248,3.708-2.256,4.922c-1.008,1.213-2.281,2.059-3.819,2.538c-1.538,0.478-3.35,0.718-5.434,0.718
		c-3.521,0-6.733-0.564-9.639-1.692c0-0.957,0.188-1.999,0.565-3.127c0.375-1.128,0.837-2.017,1.384-2.666
		c2.289,1.025,4.614,1.538,6.973,1.538c3.451,0,5.178-1.726,5.178-5.178v-1.692c-1.846,1.333-3.794,2-5.845,2
		c-3.042,0-5.34-1.205-6.896-3.614c-1.555-2.409-2.332-5.682-2.332-9.817c0-2.085,0.265-3.956,0.795-5.614
		c0.529-1.657,1.256-3.067,2.179-4.229c0.923-1.161,1.99-2.051,3.204-2.666c1.213-0.615,2.503-0.923,3.87-0.923
		C557.634,302.61,559.958,303.413,561.838,305.019z M559.89,321.271v-10.971c-1.206-1.161-2.343-1.743-3.409-1.743
		c-2.342,0-3.512,2.563-3.512,7.69c0,4.511,1.016,6.767,3.047,6.767C557.427,323.014,558.719,322.433,559.89,321.271z"/>
	<path style="fill:#314444;" d="M301.565,380.124l-0.051,3.691v0.051c1.566-0.068,2.827-0.103,3.781-0.103h11.855
		c0,1.265-0.051,2.239-0.153,2.922c-0.41,2.632-2.153,3.948-5.229,3.948H298.13c-1.47,0-2.623-0.427-3.461-1.282
		c-0.838-0.854-1.256-2.016-1.256-3.486v-30.042l0.359-0.359h22.096c0.205,0.992,0.308,2.068,0.308,3.23
		c0,1.162-0.239,2.376-0.717,3.64h-13.945l0.051,3.691v3.589c0.885-0.034,2.041-0.051,3.471-0.051h7.808
		c0.308,0.957,0.462,2.051,0.462,3.281s-0.154,2.358-0.462,3.384h-11.278V380.124z"/>
	<path style="fill:#314444;" d="M330.376,364.385c1.641,0,3.229,0.376,4.768,1.128v-12.407l0.308-0.359h3.128
		c1.64,0,2.776,0.359,3.409,1.077c0.632,0.718,0.948,1.966,0.948,3.742v25.531c0,1.812,0.478,3.042,1.436,3.691
		c-0.172,0.718-0.496,1.487-0.975,2.307c-0.479,0.82-0.974,1.418-1.486,1.794c-2.495-0.069-4.324-1.025-5.485-2.871
		c-2.051,2.153-4.512,3.23-7.383,3.23s-5.075-1.196-6.613-3.589c-1.538-2.392-2.307-5.673-2.307-9.843
		c0-2.051,0.265-3.904,0.795-5.563c0.529-1.657,1.256-3.067,2.179-4.23c0.923-1.161,2.007-2.059,3.255-2.691
		C327.599,364.702,328.94,364.385,330.376,364.385z M331.373,384.789c1.412,0,2.669-0.667,3.77-2v-11.227
		c-1.412-0.82-2.531-1.23-3.356-1.23c-2.343,0-3.513,2.563-3.513,7.69C328.274,382.533,329.307,384.789,331.373,384.789z"/>
	<path style="fill:#314444;" d="M349.036,381.816v-10.51c0-2.221-0.41-3.93-1.23-5.126c1.265-1.128,2.803-1.692,4.614-1.692
		c1.812,0,3.042,0.41,3.691,1.23c0.648,0.82,0.974,2.068,0.974,3.742v10.868c0,1.197,0.137,2.068,0.41,2.615
		c0.273,0.547,0.991,0.82,2.153,0.82c1.128,0,2.272-0.581,3.435-1.743v-17.123c1.128-0.205,2.443-0.308,3.948-0.308
		c1.503,0,2.852,0.103,4.05,0.308v18.251c0,1.846,0.478,3.093,1.436,3.742c-0.172,0.684-0.496,1.427-0.975,2.23
		c-0.478,0.803-0.974,1.392-1.486,1.769c-2.803-0.103-4.819-1.299-6.05-3.589c-2.7,2.427-5.246,3.64-7.639,3.64
		c-2.393,0-4.212-0.828-5.46-2.486C349.659,386.797,349.036,384.584,349.036,381.816z"/>
	<path style="fill:#314444;" d="M390.1,376.228v-0.667c0-1.914-0.205-3.307-0.615-4.178c-0.41-0.871-1.179-1.307-2.307-1.307
		c-1.196,0-2.034,0.59-2.512,1.769c-0.479,1.179-0.718,3.136-0.718,5.87c0,1.367,0.094,2.512,0.282,3.435
		c0.186,0.923,0.461,1.666,0.819,2.23c0.359,0.564,0.811,0.974,1.359,1.23c0.546,0.256,1.195,0.385,1.948,0.385
		c0.785,0,1.657-0.171,2.614-0.513c0.956-0.341,1.981-0.888,3.076-1.641c0.308,0.171,0.623,0.419,0.948,0.743
		c0.324,0.325,0.623,0.692,0.897,1.102c0.273,0.41,0.513,0.846,0.718,1.307c0.205,0.461,0.359,0.897,0.462,1.307
		c-1.128,1.197-2.598,2.153-4.409,2.871c-1.811,0.718-3.657,1.077-5.536,1.077c-3.658,0-6.46-1.196-8.408-3.589
		c-1.948-2.392-2.922-5.793-2.922-10.202c0-2.256,0.315-4.221,0.948-5.896c0.632-1.674,1.469-3.058,2.512-4.153
		c1.043-1.093,2.238-1.914,3.589-2.461c1.35-0.546,2.76-0.82,4.229-0.82c1.504,0,2.879,0.205,4.127,0.615
		c1.247,0.41,2.324,0.992,3.229,1.743c0.905,0.752,1.606,1.649,2.103,2.691c0.495,1.043,0.743,2.197,0.743,3.46
		c0,1.436-0.419,2.444-1.256,3.025c-0.838,0.582-1.871,0.872-3.102,0.872C391.895,376.535,390.954,376.433,390.1,376.228z"/>
	<path style="fill:#314444;" d="M423.422,386.789c-0.171,0.718-0.495,1.487-0.974,2.307c-0.479,0.82-0.975,1.418-1.487,1.794
		c-2.393-0.069-4.238-0.974-5.536-2.717c-2.223,2.051-4.632,3.076-7.229,3.076c-1.333,0-2.495-0.214-3.486-0.641
		c-0.991-0.427-1.829-1-2.512-1.717c-0.685-0.718-1.197-1.546-1.538-2.486c-0.342-0.94-0.513-1.922-0.513-2.948
		c0-1.469,0.265-2.759,0.795-3.871c0.529-1.11,1.256-2.033,2.179-2.768c0.923-0.735,1.999-1.29,3.229-1.666
		c1.23-0.376,2.546-0.564,3.947-0.564c0.786,0,1.478,0.009,2.076,0.026c0.598,0.018,1.119,0.043,1.564,0.077v-0.985
		c0-2.18-1.11-3.27-3.332-3.27c-1.436,0-3.947,0.564-7.536,1.692c-1.025-1.196-1.675-3.058-1.948-5.588
		c0.82-0.308,1.734-0.598,2.743-0.872c1.008-0.273,2.042-0.513,3.102-0.718c1.059-0.205,2.102-0.367,3.127-0.487
		c1.025-0.119,1.948-0.179,2.768-0.179c1.196,0,2.35,0.171,3.461,0.513c1.109,0.342,2.084,0.863,2.922,1.564
		c0.837,0.701,1.503,1.607,1.999,2.717c0.495,1.111,0.743,2.435,0.743,3.973v10.407C421.986,385.029,422.465,386.14,423.422,386.789
		z M407.94,382.944c0,1.607,0.923,2.409,2.768,2.409c0.957,0,2.033-0.495,3.229-1.487v-4.101c-0.684-0.034-1.256-0.059-1.717-0.077
		c-0.462-0.017-0.813-0.026-1.051-0.026C409.017,379.663,407.94,380.757,407.94,382.944z"/>
	<path style="fill:#314444;" d="M442.596,364.847c0.205,0.948,0.308,1.897,0.308,2.845c0,0.949-0.102,1.88-0.308,2.794l-6.101-0.103
		v11.791c0,1.607,0.751,2.41,2.256,2.41h2.87c0.444,1.241,0.667,2.378,0.667,3.412c0,1.034-0.069,1.775-0.205,2.223
		c-2.53,0.344-4.854,0.517-6.973,0.517c-4.306,0-6.459-2.382-6.459-7.145v-13.157l-3.999,0.051c-0.238-0.847-0.358-1.77-0.358-2.769
		c0-0.999,0.12-1.955,0.358-2.87l3.999,0.102v-2.973c0-1.743,0.333-2.981,0.999-3.717c0.667-0.735,1.786-1.102,3.358-1.102h3.127
		l0.359,0.359v7.434L442.596,364.847z"/>
	<path style="fill:#314444;" d="M457.053,370.793v19.686c-0.581,0.103-1.214,0.18-1.896,0.231c-0.685,0.051-1.385,0.077-2.103,0.077
		s-1.427-0.026-2.127-0.077c-0.701-0.051-1.342-0.128-1.923-0.231v-16.969c0-1.982-0.804-2.973-2.409-2.973h-0.77
		c-0.205-0.649-0.308-1.555-0.308-2.717c0-1.128,0.102-2.084,0.308-2.871c0.889-0.068,1.709-0.128,2.461-0.179
		c0.752-0.051,1.436-0.077,2.051-0.077h1.128c1.743,0,3.109,0.547,4.102,1.641C456.557,367.428,457.053,368.914,457.053,370.793z
		 M448.081,354.594c0.991-0.546,2.272-0.82,3.846-0.82c1.605,0,2.853,0.274,3.742,0.82c0.41,0.923,0.615,1.914,0.615,2.973
		c0,1.06-0.205,2.051-0.615,2.973c-0.992,0.513-2.29,0.769-3.896,0.769c-1.607,0-2.837-0.256-3.691-0.769
		c-0.41-0.923-0.615-1.914-0.615-2.973C447.466,356.508,447.671,355.516,448.081,354.594z"/>
	<path style="fill:#314444;" d="M481.558,367.154c2.46,2.461,3.691,5.982,3.691,10.561c0,2.051-0.265,3.914-0.794,5.588
		c-0.53,1.675-1.3,3.102-2.308,4.281c-1.008,1.179-2.247,2.085-3.717,2.717c-1.47,0.632-3.161,0.949-5.075,0.949
		s-3.598-0.325-5.05-0.974c-1.453-0.649-2.684-1.564-3.691-2.743c-1.008-1.179-1.769-2.606-2.281-4.281
		c-0.513-1.674-0.768-3.52-0.768-5.537c0-2.051,0.256-3.904,0.768-5.563c0.513-1.657,1.265-3.084,2.256-4.281
		c0.991-1.196,2.222-2.119,3.691-2.768c1.469-0.649,3.161-0.974,5.075-0.974C476.738,364.129,479.472,365.137,481.558,367.154z
		 M473.38,370.127c-0.758,0-1.368,0.179-1.832,0.538c-0.465,0.359-0.835,0.846-1.11,1.461c-0.275,0.615-0.465,1.325-0.568,2.128
		c-0.104,0.803-0.154,1.666-0.154,2.589c0,1.435,0.042,2.675,0.129,3.717c0.086,1.043,0.258,1.914,0.516,2.614
		c0.258,0.701,0.62,1.222,1.085,1.564c0.465,0.342,1.075,0.512,1.833,0.512c1.514,0,2.512-0.658,2.994-1.974
		c0.481-1.315,0.723-3.186,0.723-5.613c0-2.461-0.241-4.332-0.723-5.614C475.789,370.768,474.825,370.127,473.38,370.127z"/>
	<path style="fill:#314444;" d="M511.906,373.562v10.509c0,2.256,0.41,3.948,1.23,5.075c-1.299,1.162-2.854,1.743-4.665,1.743
		c-1.777,0-2.991-0.41-3.64-1.23c-0.649-0.82-0.975-2.067-0.975-3.742v-10.92c0-1.161-0.153-2.016-0.461-2.563
		c-0.308-0.546-0.906-0.82-1.795-0.82c-0.512,0-1.094,0.137-1.742,0.41c-0.65,0.274-1.316,0.718-2,1.333v17.123
		c-0.581,0.103-1.213,0.18-1.897,0.231c-0.685,0.051-1.385,0.077-2.102,0.077c-0.718,0-1.419-0.026-2.103-0.077
		c-0.684-0.051-1.316-0.128-1.896-0.231v-25.582l0.358-0.359h3.025c2.084,0,3.485,1.025,4.203,3.076
		c2.393-2.119,4.768-3.178,7.126-3.178c2.393,0,4.212,0.829,5.46,2.487C511.282,368.581,511.906,370.793,511.906,373.562z"/>
</g>
<g>
	<g>
		<g>
			<path style="fill:#314444;" d="M193.299,276.987l-72.286-39.477l0.139,57.984c0,11.555,12.328,21.641,32.206,32.496
				c19.877,10.856,63.11,10.856,82.989,0c19.878-10.855,29.413-23.043,29.1-32.496l0.138-57.984L193.299,276.987z"/>
			<path style="opacity:0.4;fill:#231F20;" d="M121.013,240.348l0.139,45.17c10.145,7.354,57.574,36.71,73.175,36.768
				c15.952,0.061,63.03-28.364,71.12-35.717l0.138-44.12l-72.286-7.22L121.013,240.348z"/>
			<polygon style="fill:#324446;" points="193.251,194.478 115.243,236.656 93.48,240.718 93.48,248.422 93.482,248.422 
				193.251,302.91 293.816,248.422 293.82,248.422 293.82,240.718 271.883,236.656 			"/>
			<polygon style="fill:#4E6566;" points="93.48,240.718 193.251,295.204 293.82,240.718 193.251,186.772 			"/>
			<g>
				<polygon style="fill:#FBB526;" points="137.943,295.336 141.575,294.709 141.575,267.046 137.91,265.045 				"/>
			</g>
			<polygon style="fill:#FBB526;" points="137.91,265.045 141.575,267.046 196.78,237.136 193.368,234.555 			"/>
			<g>
				<path style="fill:#0B2025;" d="M193.649,232.798c-5.44,0-9.849,2.11-9.849,4.712c0,2.602,4.408,4.712,9.849,4.712
					c5.438,0,9.85-2.11,9.85-4.712C203.499,234.908,199.087,232.798,193.649,232.798z"/>
				<rect x="183.81" y="234.37" style="fill:#0B2025;" width="19.673" height="3.377"/>
				<path style="fill:#314444;" d="M193.649,229.842c-5.44,0-9.849,2.109-9.849,4.713c0,2.6,4.408,4.71,9.849,4.71
					c5.438,0,9.85-2.109,9.85-4.71C203.499,231.951,199.087,229.842,193.649,229.842z"/>
			</g>
		</g>
	</g>
	<path style="fill:#F4A721;" d="M144.089,306.114c1.772-1.342,2.917-3.466,2.904-5.86c-0.024-4.031-3.312-7.28-7.343-7.257
		c-4.029,0.023-7.279,3.311-7.255,7.342c0.014,2.411,1.201,4.535,3.01,5.854c-5.098,1.836-8.731,6.727-8.698,12.454
		c0,0,0.126,15.2,0.142,17.893c0.054,9.201,26.362,8.645,26.31-0.154c-0.044-7.642-0.142-17.893-0.142-17.893
		C152.984,312.736,149.253,307.866,144.089,306.114z"/>
	<path style="fill:#DD7C12;" d="M146.993,300.254c-0.021-3.531-2.547-6.461-5.883-7.118c0.056,0.068,0.146,0.134,0.284,0.2
		c1.798,0.852,4.352,4.731,1.987,8.705c-2.365,3.974-8.705,3.69-9.935,1.987l-0.003,0.008c0.507,0.843,1.17,1.581,1.962,2.159
		c-0.897,0.323-1.745,0.745-2.539,1.245c0.005-0.002,0.008-0.003,0.013-0.005c1.608-0.662,3.501,1.136,8.232,0.946
		c4.345-0.174,5.896-0.742,7.293,0.192c-1.256-1.073-2.716-1.915-4.313-2.457C145.861,304.773,147.007,302.648,146.993,300.254z"/>
</g>
</svg>
